<svg width="18" height="18" viewBox="0 0 18 18" fill="none" xmlns="http://www.w3.org/2000/svg">
<path d="M0 13.5C0 14.0304 0.210714 14.5391 0.585786 14.9142C0.960859 15.2893 1.46957 15.5 2 15.5H16C16.5304 15.5 17.0391 15.2893 17.4142 14.9142C17.7893 14.5391 18 14.0304 18 13.5V11H0V13.5Z" fill="#138808"/>
<path d="M18 7V4.5C18 3.96957 17.7893 3.46086 17.4142 3.08579C17.0391 2.71071 16.5304 2.5 16 2.5H2C1.46957 2.5 0.960859 2.71071 0.585786 3.08579C0.210714 3.46086 0 3.96957 0 4.5L0 7H18Z" fill="#FF9933"/>
<path d="M0 6.8335H18V11.167H0V6.8335Z" fill="#F7F7F7"/>
<path d="M9 11C10.1046 11 11 10.1046 11 9C11 7.89543 10.1046 7 9 7C7.89543 7 7 7.89543 7 9C7 10.1046 7.89543 11 9 11Z" fill="#000080"/>
<path d="M9 10.6875C9.93198 10.6875 10.6875 9.93198 10.6875 9C10.6875 8.06802 9.93198 7.3125 9 7.3125C8.06802 7.3125 7.3125 8.06802 7.3125 9C7.3125 9.93198 8.06802 10.6875 9 10.6875Z" fill="#F7F7F7"/>
<path d="M9.0499 8.37499L8.9999 8.69999L8.9499 8.37499L8.9999 7.39999L9.0499 8.37499ZM8.5859 7.45449L8.7899 8.40899L8.9224 8.70999L8.8864 8.38349L8.5859 7.45449ZM8.1999 7.61449L8.6439 8.48349L8.8499 8.73999L8.7309 8.43349L8.1999 7.61449ZM7.8684 7.86849L8.5224 8.59349L8.7879 8.78799L8.5934 8.52249L7.8684 7.86849ZM7.6144 8.19999L8.4334 8.73099L8.7399 8.84999L8.4834 8.64399L7.6144 8.19999ZM7.4544 8.58599L8.3834 8.88649L8.7099 8.92249L8.4089 8.78999L7.4544 8.58599ZM7.3999 8.99999L8.3749 9.04999L8.6999 8.99999L8.3749 8.94999L7.3999 8.99999ZM7.4544 9.41399L8.4089 9.20999L8.7099 9.07749L8.3834 9.11349L7.4544 9.41399ZM7.6144 9.79999L8.4834 9.35599L8.7399 9.14999L8.4334 9.26899L7.6144 9.79999ZM7.8684 10.1315L8.5934 9.47749L8.7879 9.21199L8.5224 9.40649L7.8684 10.1315ZM8.1999 10.3855L8.7309 9.56649L8.8499 9.25999L8.6439 9.51649L8.1999 10.3855ZM8.5859 10.5455L8.8864 9.61649L8.9224 9.28999L8.7899 9.59099L8.5859 10.5455ZM8.9999 10.6L9.0499 9.62499L8.9999 9.29999L8.9499 9.62499L8.9999 10.6ZM9.4139 10.5455L9.2099 9.59099L9.0774 9.28999L9.1134 9.61649L9.4139 10.5455ZM9.7999 10.3855L9.3559 9.51649L9.1499 9.25999L9.2689 9.56649L9.7999 10.3855ZM10.1314 10.1315L9.4774 9.40649L9.2119 9.21199L9.4064 9.47749L10.1314 10.1315ZM10.3854 9.79999L9.5664 9.26899L9.2599 9.14999L9.5164 9.35599L10.3854 9.79999ZM10.5454 9.41399L9.6164 9.11349L9.2899 9.07749L9.5909 9.20999L10.5454 9.41399ZM10.5999 8.99999L9.6249 8.94999L9.2999 8.99999L9.6249 9.04999L10.5999 8.99999ZM10.5454 8.58599L9.5909 8.78999L9.2899 8.92249L9.6164 8.88649L10.5454 8.58599ZM10.3854 8.19999L9.5164 8.64399L9.2599 8.84999L9.5664 8.73099L10.3854 8.19999ZM10.1314 7.86849L9.4064 8.52249L9.2119 8.78799L9.4774 8.59349L10.1314 7.86849ZM9.7999 7.61449L9.2689 8.43349L9.1499 8.73999L9.3559 8.48349L9.7999 7.61449ZM9.4139 7.45449L9.1134 8.38349L9.0774 8.70999L9.2099 8.40899L9.4139 7.45449Z" fill="#6666B3"/>
<path d="M8.78018 7.42949C8.8354 7.42949 8.88018 7.38472 8.88018 7.32949C8.88018 7.27426 8.8354 7.22949 8.78018 7.22949C8.72495 7.22949 8.68018 7.27426 8.68018 7.32949C8.68018 7.38472 8.72495 7.42949 8.78018 7.42949Z" fill="#000080"/>
<path d="M8.35488 7.54351C8.41011 7.54351 8.45488 7.49873 8.45488 7.44351C8.45488 7.38828 8.41011 7.34351 8.35488 7.34351C8.29965 7.34351 8.25488 7.38828 8.25488 7.44351C8.25488 7.49873 8.29965 7.54351 8.35488 7.54351Z" fill="#000080"/>
<path d="M7.97402 7.76299C8.02925 7.76299 8.07402 7.71822 8.07402 7.66299C8.07402 7.60776 8.02925 7.56299 7.97402 7.56299C7.91879 7.56299 7.87402 7.60776 7.87402 7.66299C7.87402 7.71822 7.91879 7.76299 7.97402 7.76299Z" fill="#000080"/>
<path d="M7.66299 8.07399C7.71822 8.07399 7.76299 8.02922 7.76299 7.97399C7.76299 7.91876 7.71822 7.87399 7.66299 7.87399C7.60776 7.87399 7.56299 7.91876 7.56299 7.97399C7.56299 8.02922 7.60776 8.07399 7.66299 8.07399Z" fill="#000080"/>
<path d="M7.44326 8.455C7.49849 8.455 7.54326 8.41023 7.54326 8.355C7.54326 8.29978 7.49849 8.255 7.44326 8.255C7.38803 8.255 7.34326 8.29978 7.34326 8.355C7.34326 8.41023 7.38803 8.455 7.44326 8.455Z" fill="#000080"/>
<path d="M7.32949 8.87999C7.38472 8.87999 7.42949 8.83522 7.42949 8.77999C7.42949 8.72476 7.38472 8.67999 7.32949 8.67999C7.27426 8.67999 7.22949 8.72476 7.22949 8.77999C7.22949 8.83522 7.27426 8.87999 7.32949 8.87999Z" fill="#000080"/>
<path d="M7.32949 9.31999C7.38472 9.31999 7.42949 9.27522 7.42949 9.22C7.42949 9.16477 7.38472 9.12 7.32949 9.12C7.27426 9.12 7.22949 9.16477 7.22949 9.22C7.22949 9.27522 7.27426 9.31999 7.32949 9.31999Z" fill="#000080"/>
<path d="M7.44326 9.74498C7.49849 9.74498 7.54326 9.70021 7.54326 9.64498C7.54326 9.58975 7.49849 9.54498 7.44326 9.54498C7.38803 9.54498 7.34326 9.58975 7.34326 9.64498C7.34326 9.70021 7.38803 9.74498 7.44326 9.74498Z" fill="#000080"/>
<path d="M7.66299 10.126C7.71822 10.126 7.76299 10.0812 7.76299 10.026C7.76299 9.97077 7.71822 9.92599 7.66299 9.92599C7.60776 9.92599 7.56299 9.97077 7.56299 10.026C7.56299 10.0812 7.60776 10.126 7.66299 10.126Z" fill="#000080"/>
<path d="M7.97402 10.437C8.02925 10.437 8.07402 10.3922 8.07402 10.337C8.07402 10.2818 8.02925 10.237 7.97402 10.237C7.91879 10.237 7.87402 10.2818 7.87402 10.337C7.87402 10.3922 7.91879 10.437 7.97402 10.437Z" fill="#000080"/>
<path d="M8.35488 10.6565C8.41011 10.6565 8.45488 10.6117 8.45488 10.5565C8.45488 10.5013 8.41011 10.4565 8.35488 10.4565C8.29965 10.4565 8.25488 10.5013 8.25488 10.5565C8.25488 10.6117 8.29965 10.6565 8.35488 10.6565Z" fill="#000080"/>
<path d="M8.78018 10.7705C8.8354 10.7705 8.88018 10.7257 8.88018 10.6705C8.88018 10.6153 8.8354 10.5705 8.78018 10.5705C8.72495 10.5705 8.68018 10.6153 8.68018 10.6705C8.68018 10.7257 8.72495 10.7705 8.78018 10.7705Z" fill="#000080"/>
<path d="M9.22012 10.7705C9.27535 10.7705 9.32012 10.7257 9.32012 10.6705C9.32012 10.6153 9.27535 10.5705 9.22012 10.5705C9.16489 10.5705 9.12012 10.6153 9.12012 10.6705C9.12012 10.7257 9.16489 10.7705 9.22012 10.7705Z" fill="#000080"/>
<path d="M9.64492 10.6565C9.70015 10.6565 9.74492 10.6117 9.74492 10.5565C9.74492 10.5013 9.70015 10.4565 9.64492 10.4565C9.58969 10.4565 9.54492 10.5013 9.54492 10.5565C9.54492 10.6117 9.58969 10.6565 9.64492 10.6565Z" fill="#000080"/>
<path d="M10.0258 10.437C10.081 10.437 10.1258 10.3922 10.1258 10.337C10.1258 10.2818 10.081 10.237 10.0258 10.237C9.97055 10.237 9.92578 10.2818 9.92578 10.337C9.92578 10.3922 9.97055 10.437 10.0258 10.437Z" fill="#000080"/>
<path d="M10.3368 10.126C10.392 10.126 10.4368 10.0812 10.4368 10.026C10.4368 9.97077 10.392 9.92599 10.3368 9.92599C10.2816 9.92599 10.2368 9.97077 10.2368 10.026C10.2368 10.0812 10.2816 10.126 10.3368 10.126Z" fill="#000080"/>
<path d="M10.5565 9.74498C10.6118 9.74498 10.6565 9.70021 10.6565 9.64498C10.6565 9.58975 10.6118 9.54498 10.5565 9.54498C10.5013 9.54498 10.4565 9.58975 10.4565 9.64498C10.4565 9.70021 10.5013 9.74498 10.5565 9.74498Z" fill="#000080"/>
<path d="M10.6703 9.31999C10.7255 9.31999 10.7703 9.27522 10.7703 9.22C10.7703 9.16477 10.7255 9.12 10.6703 9.12C10.6151 9.12 10.5703 9.16477 10.5703 9.22C10.5703 9.27522 10.6151 9.31999 10.6703 9.31999Z" fill="#000080"/>
<path d="M10.6703 8.87999C10.7255 8.87999 10.7703 8.83522 10.7703 8.77999C10.7703 8.72476 10.7255 8.67999 10.6703 8.67999C10.6151 8.67999 10.5703 8.72476 10.5703 8.77999C10.5703 8.83522 10.6151 8.87999 10.6703 8.87999Z" fill="#000080"/>
<path d="M10.5565 8.455C10.6118 8.455 10.6565 8.41023 10.6565 8.355C10.6565 8.29978 10.6118 8.255 10.5565 8.255C10.5013 8.255 10.4565 8.29978 10.4565 8.355C10.4565 8.41023 10.5013 8.455 10.5565 8.455Z" fill="#000080"/>
<path d="M10.3368 8.07399C10.392 8.07399 10.4368 8.02922 10.4368 7.97399C10.4368 7.91876 10.392 7.87399 10.3368 7.87399C10.2816 7.87399 10.2368 7.91876 10.2368 7.97399C10.2368 8.02922 10.2816 8.07399 10.3368 8.07399Z" fill="#000080"/>
<path d="M10.0258 7.76299C10.081 7.76299 10.1258 7.71822 10.1258 7.66299C10.1258 7.60776 10.081 7.56299 10.0258 7.56299C9.97055 7.56299 9.92578 7.60776 9.92578 7.66299C9.92578 7.71822 9.97055 7.76299 10.0258 7.76299Z" fill="#000080"/>
<path d="M9.64492 7.54351C9.70015 7.54351 9.74492 7.49873 9.74492 7.44351C9.74492 7.38828 9.70015 7.34351 9.64492 7.34351C9.58969 7.34351 9.54492 7.38828 9.54492 7.44351C9.54492 7.49873 9.58969 7.54351 9.64492 7.54351Z" fill="#000080"/>
<path d="M9.22012 7.42949C9.27535 7.42949 9.32012 7.38472 9.32012 7.32949C9.32012 7.27426 9.27535 7.22949 9.22012 7.22949C9.16489 7.22949 9.12012 7.27426 9.12012 7.32949C9.12012 7.38472 9.16489 7.42949 9.22012 7.42949Z" fill="#000080"/>
<path d="M8.9998 9.44999C9.24833 9.44999 9.4498 9.24852 9.4498 8.99999C9.4498 8.75146 9.24833 8.54999 8.9998 8.54999C8.75128 8.54999 8.5498 8.75146 8.5498 8.99999C8.5498 9.24852 8.75128 9.44999 8.9998 9.44999Z" fill="#000080"/>
</svg>
