<svg width="27" height="27" viewBox="0 0 27 27" fill="none" xmlns="http://www.w3.org/2000/svg">
<path d="M26.5344 22.3448H0.465538C0.208459 22.3448 0 22.1364 0 21.8793V5.12071C0 4.86363 0.208459 4.65517 0.465538 4.65517H26.5345C26.7915 4.65517 27 4.86363 27 5.12071V21.8793C26.9999 22.1364 26.7915 22.3448 26.5344 22.3448Z" fill="#F5F5F5"/>
<path d="M26.9999 6.01598H0V5.12071C0 4.86363 0.208459 4.65517 0.465538 4.65517H26.5345C26.7915 4.65517 27 4.86363 27 5.12071L26.9999 6.01598Z" fill="#FF4B55"/>
<path d="M26.9999 10.0981H0V11.4589H26.9999V10.0981Z" fill="#FF4B55"/>
<path d="M26.9999 7.37652H0V8.73728H26.9999V7.37652Z" fill="#FF4B55"/>
<path d="M26.9999 14.1804H0.465538C0.208459 14.1804 0 13.9719 0 13.7149V12.8196H26.9999V14.1804Z" fill="#FF4B55"/>
<path d="M26.9999 18.263H0V19.6237H26.9999V18.263Z" fill="#FF4B55"/>
<path d="M26.5344 22.3448H0.465538C0.208459 22.3448 0 22.1364 0 21.8793V20.9841H26.9999V21.8793C26.9999 22.1364 26.7915 22.3448 26.5344 22.3448Z" fill="#FF4B55"/>
<path d="M26.9999 15.5414H0V16.9021H26.9999V15.5414Z" fill="#FF4B55"/>
<path d="M12.1034 4.65522H0.465538C0.208459 4.65522 0 4.86363 0 5.12071V13.7148C0 13.9719 0.208459 14.1804 0.465538 14.1804H12.1035C12.3605 14.1804 12.569 13.9719 12.569 13.7148V5.12071C12.569 4.86363 12.3605 4.65522 12.1034 4.65522Z" fill="#41479B"/>
<path d="M1.30721 5.7238L1.41026 6.03282L1.736 6.0353C1.77818 6.03567 1.79564 6.08945 1.76173 6.1145L1.49969 6.30804L1.59799 6.61859C1.61075 6.65877 1.56493 6.6921 1.5306 6.66753L1.26561 6.47816L1.00062 6.66758C0.966287 6.6921 0.920566 6.65883 0.933223 6.61864L1.03152 6.30809L0.769483 6.11456C0.735575 6.08945 0.75303 6.03572 0.795217 6.03535L1.12096 6.03287L1.224 5.72385C1.23729 5.68377 1.29382 5.68377 1.30721 5.7238Z" fill="#F5F5F5"/>
<path d="M1.30721 7.34019L1.41026 7.64921L1.736 7.65169C1.77818 7.65206 1.79564 7.70585 1.76173 7.7309L1.49969 7.92443L1.59799 8.23498C1.61075 8.27517 1.56493 8.30849 1.5306 8.28392L1.26561 8.09455L1.00062 8.28397C0.966287 8.30849 0.920566 8.27522 0.933223 8.23504L1.03152 7.92448L0.769483 7.73095C0.735575 7.70585 0.75303 7.65211 0.795217 7.65174L1.12096 7.64926L1.224 7.34024C1.23729 7.30022 1.29382 7.30022 1.30721 7.34019Z" fill="#F5F5F5"/>
<path d="M1.30721 8.9567L1.41026 9.26573L1.736 9.26821C1.77818 9.26857 1.79564 9.32236 1.76173 9.34741L1.49969 9.54095L1.59799 9.8515C1.61075 9.89168 1.56493 9.92501 1.5306 9.90044L1.26561 9.71107L1.00062 9.90049C0.966287 9.92501 0.920566 9.89174 0.933223 9.85155L1.03152 9.541L0.769483 9.34746C0.735575 9.32236 0.75303 9.26863 0.795217 9.26826L1.12096 9.26578L1.224 8.95676C1.23729 8.91673 1.29382 8.91673 1.30721 8.9567Z" fill="#F5F5F5"/>
<path d="M1.30721 10.5733L1.41026 10.8823L1.736 10.8848C1.77818 10.8851 1.79564 10.9389 1.76173 10.964L1.49969 11.1575L1.59799 11.4681C1.61075 11.5083 1.56493 11.5416 1.5306 11.517L1.26561 11.3276L1.00062 11.5171C0.966287 11.5416 0.920566 11.5083 0.933223 11.4681L1.03152 11.1576L0.769483 10.964C0.735575 10.9389 0.75303 10.8852 0.795217 10.8848L1.12096 10.8824L1.224 10.5733C1.23729 10.5332 1.29382 10.5332 1.30721 10.5733Z" fill="#F5F5F5"/>
<path d="M1.30721 12.1898L1.41026 12.4988L1.736 12.5013C1.77818 12.5017 1.79564 12.5555 1.76173 12.5805L1.49969 12.774L1.59799 13.0846C1.61075 13.1248 1.56493 13.1581 1.5306 13.1335L1.26561 12.9442L1.00062 13.1336C0.966287 13.1581 0.920566 13.1248 0.933223 13.0846L1.03152 12.7741L0.769483 12.5806C0.735575 12.5555 0.75303 12.5017 0.795217 12.5013L1.12096 12.4989L1.224 12.1898C1.23729 12.1497 1.29382 12.1497 1.30721 12.1898Z" fill="#F5F5F5"/>
<path d="M2.56191 6.51622L2.66496 6.82524L2.9907 6.82772C3.03288 6.82809 3.05034 6.88188 3.01643 6.90692L2.75439 7.10046L2.85269 7.41101C2.86545 7.45119 2.81963 7.48452 2.7853 7.45995L2.52031 7.27053L2.25532 7.45995C2.22099 7.48447 2.17527 7.45119 2.18792 7.41101L2.28622 7.10046L2.02418 6.90692C1.99027 6.88182 2.00773 6.82809 2.04992 6.82772L2.37566 6.82524L2.4787 6.51622C2.49194 6.47624 2.54857 6.47624 2.56191 6.51622Z" fill="#F5F5F5"/>
<path d="M2.56191 8.13279L2.66496 8.44181L2.9907 8.44429C3.03288 8.44466 3.05034 8.49845 3.01643 8.52349L2.75439 8.71703L2.85269 9.02758C2.86545 9.06777 2.81963 9.10109 2.7853 9.07652L2.52031 8.8871L2.25532 9.07652C2.22099 9.10104 2.17527 9.06782 2.18792 9.02758L2.28622 8.71703L2.02418 8.52349C1.99027 8.49839 2.00773 8.44466 2.04992 8.44429L2.37566 8.44181L2.4787 8.13279C2.49194 8.09276 2.54857 8.09276 2.56191 8.13279Z" fill="#F5F5F5"/>
<path d="M2.56191 9.7493L2.66496 10.0583L2.9907 10.0608C3.03288 10.0612 3.05034 10.115 3.01643 10.14L2.75439 10.3335L2.85269 10.6441C2.86545 10.6843 2.81963 10.7176 2.7853 10.693L2.52031 10.5036L2.25532 10.693C2.22099 10.7176 2.17527 10.6843 2.18792 10.6441L2.28622 10.3335L2.02418 10.14C1.99027 10.1149 2.00773 10.0612 2.04992 10.0608L2.37566 10.0583L2.4787 9.7493C2.49194 9.70928 2.54857 9.70928 2.56191 9.7493Z" fill="#F5F5F5"/>
<path d="M2.56191 11.3658L2.66496 11.6748L2.9907 11.6773C3.03288 11.6777 3.05034 11.7315 3.01643 11.7565L2.75439 11.9501L2.85269 12.2606C2.86545 12.3008 2.81963 12.3341 2.7853 12.3096L2.52031 12.1201L2.25532 12.3096C2.22099 12.3341 2.17527 12.3008 2.18792 12.2606L2.28622 11.9501L2.02418 11.7565C1.99027 11.7314 2.00773 11.6777 2.04992 11.6773L2.37566 11.6748L2.4787 11.3658C2.49194 11.3258 2.54857 11.3258 2.56191 11.3658Z" fill="#F5F5F5"/>
<path d="M3.81661 5.72367L3.91966 6.03269L4.2454 6.03517C4.28758 6.03554 4.30504 6.08933 4.27113 6.11438L4.00909 6.30791L4.10739 6.61847C4.12015 6.65865 4.07433 6.69198 4.04 6.6674L3.77501 6.47798L3.51002 6.6674C3.47569 6.69193 3.42997 6.65865 3.44262 6.61847L3.54092 6.30791L3.27888 6.11438C3.24497 6.08928 3.26243 6.03554 3.30462 6.03517L3.63036 6.03269L3.7334 5.72367C3.74669 5.68365 3.80327 5.68365 3.81661 5.72367Z" fill="#F5F5F5"/>
<path d="M3.81661 7.34019L3.91966 7.64921L4.2454 7.65169C4.28758 7.65206 4.30504 7.70585 4.27113 7.7309L4.00909 7.92443L4.10739 8.23499C4.12015 8.27517 4.07433 8.3085 4.04 8.28392L3.77501 8.0945L3.51002 8.28392C3.47569 8.30844 3.42997 8.27517 3.44262 8.23499L3.54092 7.92443L3.27888 7.7309C3.24497 7.7058 3.26243 7.65206 3.30462 7.65169L3.63036 7.64921L3.7334 7.34019C3.74669 7.30022 3.80327 7.30022 3.81661 7.34019Z" fill="#F5F5F5"/>
<path d="M3.81661 8.95671L3.91966 9.26573L4.2454 9.26821C4.28758 9.26858 4.30504 9.32237 4.27113 9.34742L4.00909 9.54095L4.10739 9.8515C4.12015 9.89169 4.07433 9.92501 4.04 9.90044L3.77501 9.71102L3.51002 9.90044C3.47569 9.92496 3.42997 9.89169 3.44262 9.8515L3.54092 9.54095L3.27888 9.34742C3.24497 9.32231 3.26243 9.26858 3.30462 9.26821L3.63036 9.26573L3.7334 8.95671C3.74669 8.91673 3.80327 8.91673 3.81661 8.95671Z" fill="#F5F5F5"/>
<path d="M3.81661 10.5733L3.91966 10.8823L4.2454 10.8848C4.28758 10.8851 4.30504 10.9389 4.27113 10.964L4.00909 11.1575L4.10739 11.4681C4.12015 11.5083 4.07433 11.5416 4.04 11.517L3.77501 11.3276L3.51002 11.517C3.47569 11.5415 3.42997 11.5083 3.44262 11.4681L3.54092 11.1575L3.27888 10.964C3.24497 10.9389 3.26243 10.8851 3.30462 10.8848L3.63036 10.8823L3.7334 10.5733C3.74669 10.5332 3.80327 10.5332 3.81661 10.5733Z" fill="#F5F5F5"/>
<path d="M3.81661 12.1898L3.91966 12.4988L4.2454 12.5013C4.28758 12.5017 4.30504 12.5555 4.27113 12.5805L4.00909 12.774L4.10739 13.0846C4.12015 13.1248 4.07433 13.1581 4.04 13.1335L3.77501 12.9441L3.51002 13.1335C3.47569 13.158 3.42997 13.1248 3.44262 13.0846L3.54092 12.774L3.27888 12.5805C3.24497 12.5554 3.26243 12.5017 3.30462 12.5013L3.63036 12.4988L3.7334 12.1898C3.74669 12.1497 3.80327 12.1497 3.81661 12.1898Z" fill="#F5F5F5"/>
<path d="M5.07137 6.51622L5.17442 6.82524L5.50016 6.82772C5.54234 6.82809 5.5598 6.88188 5.52589 6.90692L5.26385 7.10046L5.36215 7.41101C5.37491 7.45119 5.32909 7.48452 5.29476 7.45995L5.02977 7.27053L4.76478 7.45995C4.73045 7.48447 4.68473 7.45119 4.69738 7.41101L4.79568 7.10046L4.53364 6.90692C4.49973 6.88182 4.51719 6.82809 4.55938 6.82772L4.88512 6.82524L4.98816 6.51622C5.0014 6.47624 5.05803 6.47624 5.07137 6.51622Z" fill="#F5F5F5"/>
<path d="M5.07137 8.13279L5.17442 8.44181L5.50016 8.44429C5.54234 8.44466 5.5598 8.49845 5.52589 8.52349L5.26385 8.71703L5.36215 9.02758C5.37491 9.06777 5.32909 9.10109 5.29476 9.07652L5.02977 8.8871L4.76478 9.07652C4.73045 9.10104 4.68473 9.06782 4.69738 9.02758L4.79568 8.71703L4.53364 8.52349C4.49973 8.49839 4.51719 8.44466 4.55938 8.44429L4.88512 8.44181L4.98816 8.13279C5.0014 8.09276 5.05803 8.09276 5.07137 8.13279Z" fill="#F5F5F5"/>
<path d="M5.07137 9.7493L5.17442 10.0583L5.50016 10.0608C5.54234 10.0612 5.5598 10.115 5.52589 10.14L5.26385 10.3335L5.36215 10.6441C5.37491 10.6843 5.32909 10.7176 5.29476 10.693L5.02977 10.5036L4.76478 10.693C4.73045 10.7176 4.68473 10.6843 4.69738 10.6441L4.79568 10.3335L4.53364 10.14C4.49973 10.1149 4.51719 10.0612 4.55938 10.0608L4.88512 10.0583L4.98816 9.7493C5.0014 9.70928 5.05803 9.70928 5.07137 9.7493Z" fill="#F5F5F5"/>
<path d="M5.07137 11.3658L5.17442 11.6748L5.50016 11.6773C5.54234 11.6777 5.5598 11.7315 5.52589 11.7565L5.26385 11.9501L5.36215 12.2606C5.37491 12.3008 5.32909 12.3341 5.29476 12.3096L5.02977 12.1201L4.76478 12.3096C4.73045 12.3341 4.68473 12.3008 4.69738 12.2606L4.79568 11.9501L4.53364 11.7565C4.49973 11.7314 4.51719 11.6777 4.55938 11.6773L4.88512 11.6748L4.98816 11.3658C5.0014 11.3258 5.05803 11.3258 5.07137 11.3658Z" fill="#F5F5F5"/>
<path d="M6.32607 5.72367L6.42911 6.03269L6.75485 6.03517C6.79704 6.03554 6.81449 6.08933 6.78058 6.11438L6.51855 6.30791L6.61684 6.61847C6.6296 6.65865 6.58378 6.69198 6.54945 6.6674L6.28441 6.47798L6.01942 6.6674C5.98509 6.69193 5.93937 6.65865 5.95202 6.61847L6.05032 6.30791L5.78828 6.11438C5.75437 6.08928 5.77183 6.03554 5.81402 6.03517L6.13976 6.03269L6.2428 5.72367C6.25614 5.68365 6.31272 5.68365 6.32607 5.72367Z" fill="#F5F5F5"/>
<path d="M6.32607 7.34019L6.42911 7.64921L6.75485 7.65169C6.79704 7.65206 6.81449 7.70585 6.78058 7.7309L6.51855 7.92443L6.61684 8.23499C6.6296 8.27517 6.58378 8.3085 6.54945 8.28392L6.28441 8.0945L6.01942 8.28392C5.98509 8.30844 5.93937 8.27517 5.95202 8.23499L6.05032 7.92443L5.78828 7.7309C5.75437 7.7058 5.77183 7.65206 5.81402 7.65169L6.13976 7.64921L6.2428 7.34019C6.25614 7.30022 6.31272 7.30022 6.32607 7.34019Z" fill="#F5F5F5"/>
<path d="M6.32607 8.95671L6.42911 9.26573L6.75485 9.26821C6.79704 9.26858 6.81449 9.32237 6.78058 9.34742L6.51855 9.54095L6.61684 9.8515C6.6296 9.89169 6.58378 9.92501 6.54945 9.90044L6.28441 9.71102L6.01942 9.90044C5.98509 9.92496 5.93937 9.89169 5.95202 9.8515L6.05032 9.54095L5.78828 9.34742C5.75437 9.32231 5.77183 9.26858 5.81402 9.26821L6.13976 9.26573L6.2428 8.95671C6.25614 8.91673 6.31272 8.91673 6.32607 8.95671Z" fill="#F5F5F5"/>
<path d="M6.32607 10.5733L6.42911 10.8823L6.75485 10.8848C6.79704 10.8851 6.81449 10.9389 6.78058 10.964L6.51855 11.1575L6.61684 11.4681C6.6296 11.5083 6.58378 11.5416 6.54945 11.517L6.28441 11.3276L6.01942 11.517C5.98509 11.5415 5.93937 11.5083 5.95202 11.4681L6.05032 11.1575L5.78828 10.964C5.75437 10.9389 5.77183 10.8851 5.81402 10.8848L6.13976 10.8823L6.2428 10.5733C6.25614 10.5332 6.31272 10.5332 6.32607 10.5733Z" fill="#F5F5F5"/>
<path d="M6.32607 12.1898L6.42911 12.4988L6.75485 12.5013C6.79704 12.5017 6.81449 12.5555 6.78058 12.5805L6.51855 12.774L6.61684 13.0846C6.6296 13.1248 6.58378 13.1581 6.54945 13.1335L6.28441 12.9441L6.01942 13.1335C5.98509 13.158 5.93937 13.1248 5.95202 13.0846L6.05032 12.774L5.78828 12.5805C5.75437 12.5554 5.77183 12.5017 5.81402 12.5013L6.13976 12.4988L6.2428 12.1898C6.25614 12.1497 6.31272 12.1497 6.32607 12.1898Z" fill="#F5F5F5"/>
<path d="M7.58077 6.51622L7.68382 6.82524L8.00956 6.82772C8.05174 6.82809 8.0692 6.88188 8.03529 6.90692L7.77325 7.10046L7.87155 7.41101C7.88431 7.45119 7.83849 7.48452 7.80416 7.45995L7.53917 7.27053L7.27418 7.45995C7.23985 7.48447 7.19413 7.45119 7.20678 7.41101L7.30508 7.10046L7.04304 6.90692C7.00913 6.88182 7.02659 6.82809 7.06878 6.82772L7.39452 6.82524L7.49756 6.51622C7.5109 6.47624 7.56743 6.47624 7.58077 6.51622Z" fill="#F5F5F5"/>
<path d="M7.58077 8.13279L7.68382 8.44181L8.00956 8.44429C8.05174 8.44466 8.0692 8.49845 8.03529 8.52349L7.77325 8.71703L7.87155 9.02758C7.88431 9.06777 7.83849 9.10109 7.80416 9.07652L7.53917 8.8871L7.27418 9.07652C7.23985 9.10104 7.19413 9.06782 7.20678 9.02758L7.30508 8.71703L7.04304 8.52349C7.00913 8.49839 7.02659 8.44466 7.06878 8.44429L7.39452 8.44181L7.49756 8.13279C7.5109 8.09276 7.56743 8.09276 7.58077 8.13279Z" fill="#F5F5F5"/>
<path d="M7.58077 9.7493L7.68382 10.0583L8.00956 10.0608C8.05174 10.0612 8.0692 10.115 8.03529 10.14L7.77325 10.3335L7.87155 10.6441C7.88431 10.6843 7.83849 10.7176 7.80416 10.693L7.53917 10.5036L7.27418 10.693C7.23985 10.7176 7.19413 10.6843 7.20678 10.6441L7.30508 10.3335L7.04304 10.14C7.00913 10.1149 7.02659 10.0612 7.06878 10.0608L7.39452 10.0583L7.49756 9.7493C7.5109 9.70928 7.56743 9.70928 7.58077 9.7493Z" fill="#F5F5F5"/>
<path d="M7.58077 11.3658L7.68382 11.6748L8.00956 11.6773C8.05174 11.6777 8.0692 11.7315 8.03529 11.7565L7.77325 11.9501L7.87155 12.2606C7.88431 12.3008 7.83849 12.3341 7.80416 12.3096L7.53917 12.1201L7.27418 12.3096C7.23985 12.3341 7.19413 12.3008 7.20678 12.2606L7.30508 11.9501L7.04304 11.7565C7.00913 11.7314 7.02659 11.6777 7.06878 11.6773L7.39452 11.6748L7.49756 11.3658C7.5109 11.3258 7.56743 11.3258 7.58077 11.3658Z" fill="#F5F5F5"/>
<path d="M8.83553 5.72367L8.93858 6.03269L9.26432 6.03517C9.3065 6.03554 9.32396 6.08933 9.29005 6.11438L9.02801 6.30791L9.12631 6.61847C9.13907 6.65865 9.09325 6.69198 9.05892 6.6674L8.79393 6.47798L8.52894 6.6674C8.49461 6.69193 8.44889 6.65865 8.46154 6.61847L8.55984 6.30791L8.2978 6.11438C8.2639 6.08928 8.28135 6.03554 8.32354 6.03517L8.64928 6.03269L8.75232 5.72367C8.76556 5.68365 8.82219 5.68365 8.83553 5.72367Z" fill="#F5F5F5"/>
<path d="M8.83553 7.34019L8.93858 7.64921L9.26432 7.65169C9.3065 7.65206 9.32396 7.70585 9.29005 7.7309L9.02801 7.92443L9.12631 8.23499C9.13907 8.27517 9.09325 8.3085 9.05892 8.28392L8.79393 8.0945L8.52894 8.28392C8.49461 8.30844 8.44889 8.27517 8.46154 8.23499L8.55984 7.92443L8.2978 7.7309C8.2639 7.7058 8.28135 7.65206 8.32354 7.65169L8.64928 7.64921L8.75232 7.34019C8.76556 7.30022 8.82219 7.30022 8.83553 7.34019Z" fill="#F5F5F5"/>
<path d="M8.83553 8.95671L8.93858 9.26573L9.26432 9.26821C9.3065 9.26858 9.32396 9.32237 9.29005 9.34742L9.02801 9.54095L9.12631 9.8515C9.13907 9.89169 9.09325 9.92501 9.05892 9.90044L8.79393 9.71102L8.52894 9.90044C8.49461 9.92496 8.44889 9.89169 8.46154 9.8515L8.55984 9.54095L8.2978 9.34742C8.2639 9.32231 8.28135 9.26858 8.32354 9.26821L8.64928 9.26573L8.75232 8.95671C8.76556 8.91673 8.82219 8.91673 8.83553 8.95671Z" fill="#F5F5F5"/>
<path d="M8.83553 10.5733L8.93858 10.8823L9.26432 10.8848C9.3065 10.8851 9.32396 10.9389 9.29005 10.964L9.02801 11.1575L9.12631 11.4681C9.13907 11.5083 9.09325 11.5416 9.05892 11.517L8.79393 11.3276L8.52894 11.517C8.49461 11.5415 8.44889 11.5083 8.46154 11.4681L8.55984 11.1575L8.2978 10.964C8.2639 10.9389 8.28135 10.8851 8.32354 10.8848L8.64928 10.8823L8.75232 10.5733C8.76556 10.5332 8.82219 10.5332 8.83553 10.5733Z" fill="#F5F5F5"/>
<path d="M8.83553 12.1898L8.93858 12.4988L9.26432 12.5013C9.3065 12.5017 9.32396 12.5555 9.29005 12.5805L9.02801 12.774L9.12631 13.0846C9.13907 13.1248 9.09325 13.1581 9.05892 13.1335L8.79393 12.9441L8.52894 13.1335C8.49461 13.158 8.44889 13.1248 8.46154 13.0846L8.55984 12.774L8.2978 12.5805C8.2639 12.5554 8.28135 12.5017 8.32354 12.5013L8.64928 12.4988L8.75232 12.1898C8.76556 12.1497 8.82219 12.1497 8.83553 12.1898Z" fill="#F5F5F5"/>
<path d="M10.0903 6.51622L10.1933 6.82524L10.5191 6.82772C10.5613 6.82809 10.5787 6.88188 10.5448 6.90692L10.2828 7.10046L10.3811 7.41101C10.3938 7.45119 10.348 7.48452 10.3137 7.45995L10.0487 7.27053L9.7837 7.45995C9.74937 7.48447 9.70365 7.45119 9.7163 7.41101L9.8146 7.10046L9.55256 6.90692C9.51866 6.88182 9.53611 6.82809 9.5783 6.82772L9.90404 6.82524L10.0071 6.51622C10.0204 6.47624 10.077 6.47624 10.0903 6.51622Z" fill="#F5F5F5"/>
<path d="M10.0903 8.13279L10.1933 8.44181L10.5191 8.44429C10.5613 8.44466 10.5787 8.49845 10.5448 8.52349L10.2828 8.71703L10.3811 9.02758C10.3938 9.06777 10.348 9.10109 10.3137 9.07652L10.0487 8.8871L9.7837 9.07652C9.74937 9.10104 9.70365 9.06782 9.7163 9.02758L9.8146 8.71703L9.55256 8.52349C9.51866 8.49839 9.53611 8.44466 9.5783 8.44429L9.90404 8.44181L10.0071 8.13279C10.0204 8.09276 10.077 8.09276 10.0903 8.13279Z" fill="#F5F5F5"/>
<path d="M10.0903 9.7493L10.1933 10.0583L10.5191 10.0608C10.5613 10.0612 10.5787 10.115 10.5448 10.14L10.2828 10.3335L10.3811 10.6441C10.3938 10.6843 10.348 10.7176 10.3137 10.693L10.0487 10.5036L9.7837 10.693C9.74937 10.7176 9.70365 10.6843 9.7163 10.6441L9.8146 10.3335L9.55256 10.14C9.51866 10.1149 9.53611 10.0612 9.5783 10.0608L9.90404 10.0583L10.0071 9.7493C10.0204 9.70928 10.077 9.70928 10.0903 9.7493Z" fill="#F5F5F5"/>
<path d="M10.0903 11.3658L10.1933 11.6748L10.5191 11.6773C10.5613 11.6777 10.5787 11.7315 10.5448 11.7565L10.2828 11.9501L10.3811 12.2606C10.3938 12.3008 10.348 12.3341 10.3137 12.3096L10.0487 12.1201L9.7837 12.3096C9.74937 12.3341 9.70365 12.3008 9.7163 12.2606L9.8146 11.9501L9.55256 11.7565C9.51866 11.7314 9.53611 11.6777 9.5783 11.6773L9.90404 11.6748L10.0071 11.3658C10.0204 11.3258 10.077 11.3258 10.0903 11.3658Z" fill="#F5F5F5"/>
<path d="M11.3451 5.72367L11.4481 6.03269L11.7738 6.03517C11.816 6.03554 11.8335 6.08933 11.7996 6.11438L11.5375 6.30791L11.6358 6.61847C11.6486 6.65865 11.6028 6.69198 11.5684 6.6674L11.3034 6.47798L11.0385 6.6674C11.0041 6.69193 10.9584 6.65865 10.9711 6.61847L11.0694 6.30791L10.8073 6.11438C10.7734 6.08928 10.7909 6.03554 10.8331 6.03517L11.1588 6.03269L11.2618 5.72367C11.2751 5.68365 11.3317 5.68365 11.3451 5.72367Z" fill="#F5F5F5"/>
<path d="M11.3451 7.34019L11.4481 7.64921L11.7738 7.65169C11.816 7.65206 11.8335 7.70585 11.7996 7.7309L11.5375 7.92443L11.6358 8.23499C11.6486 8.27517 11.6028 8.3085 11.5684 8.28392L11.3034 8.0945L11.0385 8.28392C11.0041 8.30844 10.9584 8.27517 10.9711 8.23499L11.0694 7.92443L10.8073 7.7309C10.7734 7.7058 10.7909 7.65206 10.8331 7.65169L11.1588 7.64921L11.2618 7.34019C11.2751 7.30022 11.3317 7.30022 11.3451 7.34019Z" fill="#F5F5F5"/>
<path d="M11.3451 8.95671L11.4481 9.26573L11.7738 9.26821C11.816 9.26858 11.8335 9.32237 11.7996 9.34742L11.5375 9.54095L11.6358 9.8515C11.6486 9.89169 11.6028 9.92501 11.5684 9.90044L11.3034 9.71102L11.0385 9.90044C11.0041 9.92496 10.9584 9.89169 10.9711 9.8515L11.0694 9.54095L10.8073 9.34742C10.7734 9.32231 10.7909 9.26858 10.8331 9.26821L11.1588 9.26573L11.2618 8.95671C11.2751 8.91673 11.3317 8.91673 11.3451 8.95671Z" fill="#F5F5F5"/>
<path d="M11.3451 10.5733L11.4481 10.8823L11.7738 10.8848C11.816 10.8851 11.8335 10.9389 11.7996 10.964L11.5375 11.1575L11.6358 11.4681C11.6486 11.5083 11.6028 11.5416 11.5684 11.517L11.3034 11.3276L11.0385 11.517C11.0041 11.5415 10.9584 11.5083 10.9711 11.4681L11.0694 11.1575L10.8073 10.964C10.7734 10.9389 10.7909 10.8851 10.8331 10.8848L11.1588 10.8823L11.2618 10.5733C11.2751 10.5332 11.3317 10.5332 11.3451 10.5733Z" fill="#F5F5F5"/>
<path d="M11.3451 12.1898L11.4481 12.4988L11.7738 12.5013C11.816 12.5017 11.8335 12.5555 11.7996 12.5805L11.5375 12.774L11.6358 13.0846C11.6486 13.1248 11.6028 13.1581 11.5684 13.1335L11.3034 12.9441L11.0385 13.1335C11.0041 13.158 10.9584 13.1248 10.9711 13.0846L11.0694 12.774L10.8073 12.5805C10.7734 12.5554 10.7909 12.5017 10.8331 12.5013L11.1588 12.4988L11.2618 12.1898C11.2751 12.1497 11.3317 12.1497 11.3451 12.1898Z" fill="#F5F5F5"/>
</svg>
