<svg width="116" height="116" viewBox="0 0 116 116" fill="none" xmlns="http://www.w3.org/2000/svg">
<path d="M96.6667 65.7333V58C96.6667 55.949 95.8519 53.982 94.4017 52.5317C92.9514 51.0814 90.9844 50.2667 88.9334 50.2667H11.6C9.54902 50.2667 7.58202 51.0814 6.13174 52.5317C4.68146 53.982 3.8667 55.949 3.8667 58V104.4C3.8667 106.451 4.68146 108.418 6.13174 109.868C7.58202 111.319 9.54902 112.133 11.6 112.133H88.9334C90.9844 112.133 92.9514 111.319 94.4017 109.868C95.8519 108.418 96.6667 106.451 96.6667 104.4V96.6667M96.6667 65.7333H65.7334C61.6313 65.7333 57.6973 67.3629 54.7968 70.2634C51.8962 73.164 50.2667 77.098 50.2667 81.2C50.2667 85.302 51.8962 89.236 54.7968 92.1366C57.6973 95.0371 61.6313 96.6667 65.7334 96.6667H96.6667M96.6667 65.7333C100.769 65.7333 104.703 67.3629 107.603 70.2634C110.504 73.164 112.133 77.098 112.133 81.2C112.133 85.302 110.504 89.236 107.603 92.1366C104.703 95.0371 100.769 96.6667 96.6667 96.6667M27.0667 50.2667V27.0667C27.0667 20.9136 29.511 15.0126 33.8618 10.6618C38.2127 6.31095 44.1137 3.86667 50.2667 3.86667C56.4197 3.86667 62.3207 6.31095 66.6716 10.6618C71.0224 15.0126 73.4667 20.9136 73.4667 27.0667V50.2667M92.8 81.2H100.533M77.3334 81.2H85.0667M61.8667 81.2H69.6" stroke="black"/>
</svg>
