<svg width="35" height="35" viewBox="0 0 35 35" fill="none" xmlns="http://www.w3.org/2000/svg">
<path d="M13.125 5.46875C13.125 5.17867 13.2402 4.90047 13.4454 4.69535C13.6505 4.49023 13.9287 4.375 14.2188 4.375H20.7812C21.0713 4.375 21.3495 4.49023 21.5546 4.69535C21.7598 4.90047 21.875 5.17867 21.875 5.46875V8.75H27.3438C27.6338 8.75 27.912 8.86523 28.1171 9.07035C28.3223 9.27547 28.4375 9.55367 28.4375 9.84375V17.5481L31.0603 18.6856C31.1999 18.7464 31.3252 18.8357 31.4283 18.9478C31.5314 19.0598 31.6099 19.1921 31.6589 19.3362C31.7079 19.4804 31.7263 19.6331 31.7129 19.7848C31.6994 19.9364 31.6545 20.0836 31.5809 20.2169L29.0763 24.7253C28.7372 24.1063 28.3106 23.4631 27.4466 23.1547L29.0828 20.2103L18.8037 15.7566C18.3922 15.5784 17.9485 15.4864 17.5 15.4864C17.0515 15.4864 16.6078 15.5784 16.1962 15.7566L5.91719 20.2125L7.55344 23.1569C6.69156 23.4653 6.26281 24.1084 5.92375 24.7275L3.41906 20.2213C3.34394 20.0877 3.2977 19.94 3.28333 19.7874C3.26897 19.6349 3.2868 19.4811 3.33568 19.3359C3.38455 19.1907 3.46338 19.0574 3.56705 18.9447C3.67073 18.8319 3.79693 18.7421 3.9375 18.6812L6.5625 17.5459V9.84375C6.5625 9.55367 6.67773 9.27547 6.88285 9.07035C7.08797 8.86523 7.36617 8.75 7.65625 8.75H13.125V5.46875ZM8.75 16.5987L15.3256 13.7506C16.012 13.4532 16.752 13.2998 17.5 13.2998C18.248 13.2998 18.988 13.4532 19.6744 13.7506L26.25 16.5987V10.9375H8.75V16.5987ZM19.6875 6.5625H15.3125V8.75H19.6875V6.5625ZM7.87937 25.5894L7.805 25.6987C7.75479 25.7882 7.71093 25.881 7.67375 25.9766C7.63992 26.0643 7.60046 26.1498 7.55562 26.2325C7.36952 26.5545 7.14311 26.8515 6.88188 27.1162C6.25625 27.7484 5.1625 28.4375 3.28125 28.4375C2.99117 28.4375 2.71297 28.5527 2.50785 28.7579C2.30273 28.963 2.1875 29.2412 2.1875 29.5312C2.1875 29.8213 2.30273 30.0995 2.50785 30.3046C2.71297 30.5098 2.99117 30.625 3.28125 30.625C5.77719 30.625 7.41781 29.6756 8.43062 28.665C8.52542 28.5688 8.61438 28.474 8.6975 28.3806L8.86594 28.5906C9.69062 29.5794 11.0688 30.625 13.125 30.625C15.1812 30.625 16.5594 29.5794 17.3841 28.5906L17.5 28.4462L17.6159 28.5906C18.4406 29.5794 19.8188 30.625 21.875 30.625C23.9312 30.625 25.3094 29.5794 26.1341 28.5906L26.3025 28.3784C26.3856 28.4732 26.4746 28.568 26.5694 28.6628C27.5822 29.6756 29.2228 30.625 31.7188 30.625C32.0088 30.625 32.287 30.5098 32.4921 30.3046C32.6973 30.0995 32.8125 29.8213 32.8125 29.5312C32.8125 29.2412 32.6973 28.963 32.4921 28.7579C32.287 28.5527 32.0088 28.4375 31.7188 28.4375C29.8397 28.4375 28.7459 27.7463 28.1181 27.1162C27.767 26.7667 27.485 26.3541 27.2869 25.9C27.2124 25.6846 27.0726 25.4977 26.8869 25.3655C26.7013 25.2332 26.479 25.1622 26.2511 25.1622C26.0232 25.1622 25.8009 25.2332 25.6152 25.3655C25.4296 25.4977 25.2898 25.6846 25.2153 25.9C25.0305 26.3673 24.7736 26.8028 24.4541 27.1906C23.9094 27.8425 23.0978 28.4375 21.8728 28.4375C20.6478 28.4375 19.8384 27.8425 19.2959 27.1906C18.9789 26.8058 18.7235 26.3741 18.5391 25.9109C18.4936 25.7688 18.4193 25.6375 18.3209 25.5253C18.2224 25.4131 18.102 25.3223 17.9669 25.2587C17.8319 25.1951 17.6852 25.1599 17.536 25.1555C17.3868 25.151 17.2383 25.1774 17.0997 25.2328C16.9495 25.2916 16.8141 25.3829 16.7033 25.5001C16.5925 25.6173 16.509 25.7576 16.4588 25.9109C16.2743 26.3741 16.0189 26.8058 15.7019 27.1906C15.1594 27.8425 14.35 28.4375 13.125 28.4375C11.9 28.4375 11.0906 27.8425 10.5481 27.1906C10.3147 26.9081 10.1144 26.5999 9.95094 26.2719C9.90942 26.1918 9.87289 26.1093 9.84156 26.0247C9.80073 25.9124 9.75188 25.8045 9.695 25.7009C9.56122 25.4708 9.34812 25.2974 9.09562 25.2131L9.08469 25.2087C8.86909 25.1396 8.63737 25.1392 8.42148 25.2073C8.20559 25.2755 8.01618 25.409 7.87937 25.5894Z" fill="#FF8B00"/>
</svg>
