<svg width="35" height="35" viewBox="0 0 35 35" fill="none" xmlns="http://www.w3.org/2000/svg">
<path d="M8.75002 21.875H11.6667M11.6667 32.0833H8.75002C5.9996 32.0833 4.62585 32.0833 3.77127 31.2287C2.91669 30.3742 2.91669 29.0004 2.91669 26.25V23.3333C2.91669 20.5829 2.91669 19.2092 3.77127 18.3546C4.62585 17.5 5.9996 17.5 8.75002 17.5H11.6667C14.4171 17.5 15.7909 17.5 16.6454 18.3546C17.5 19.2092 17.5 20.5829 17.5 23.3333V26.25C17.5 29.0004 17.5 30.3742 16.6454 31.2287C15.7909 32.0833 14.4171 32.0833 11.6667 32.0833Z" stroke="#FF8B00" stroke-width="2.1875" stroke-linecap="round" stroke-linejoin="round"/>
<path d="M26.25 2.91667C23.0271 2.91667 20.4167 5.5548 20.4167 8.80834C20.4167 10.6692 21.1459 12.1158 22.6042 13.4079C23.6323 14.3194 24.8777 15.8331 25.6244 17.0581C25.9831 17.6473 26.4906 17.6473 26.8756 17.0581C27.6602 15.8565 28.8677 14.3194 29.8959 13.4094C31.3542 12.1158 32.0834 10.6692 32.0834 8.80834C32.0834 5.55626 29.4729 2.91667 26.25 2.91667Z" stroke="#FF8B00" stroke-width="2.1875" stroke-linejoin="round"/>
<path d="M26.25 21.875V26.25C26.25 29.0004 26.25 30.3742 25.566 31.2287C24.9142 32.0454 23.8817 32.0819 21.875 32.0833" stroke="#FF8B00" stroke-width="2.1875" stroke-linecap="round" stroke-linejoin="round"/>
<path d="M26.2617 8.75H26.2471" stroke="#FF8B00" stroke-width="2.91667" stroke-linecap="round" stroke-linejoin="round"/>
</svg>
