<svg width="35" height="35" viewBox="0 0 35 35" fill="none" xmlns="http://www.w3.org/2000/svg">
<path d="M30.625 10.2083V17.5M4.375 10.2083V25.0265C4.375 27.0433 7.21292 28.2421 12.8873 30.6381C15.1667 31.6021 16.3071 32.0833 17.5 32.0833V16.5594M21.875 27.7083C21.875 27.7083 23.151 27.7083 24.4271 30.625C24.4271 30.625 28.4813 23.3333 32.0833 21.875" stroke="#FF8B00" stroke-width="2.1875" stroke-linecap="round" stroke-linejoin="round"/>
<path d="M8.75 17.5L11.6667 18.9583M24.7917 5.83334L10.2083 13.125M12.1421 14.1327L7.88229 12.0721C5.54458 10.9404 4.375 10.3746 4.375 9.47917C4.375 8.58376 5.54458 8.01792 7.88229 6.88626L12.1406 4.82563C14.7729 3.55251 16.0854 2.91667 17.5 2.91667C18.9146 2.91667 20.2285 3.55251 22.8579 4.82563L27.1177 6.88626C29.4554 8.01792 30.625 8.58376 30.625 9.47917C30.625 10.3746 29.4554 10.9404 27.1177 12.0721L22.8594 14.1327C20.2271 15.4058 18.9146 16.0417 17.5 16.0417C16.0854 16.0417 14.7715 15.4058 12.1421 14.1327Z" stroke="#FF8B00" stroke-width="2.1875" stroke-linecap="round" stroke-linejoin="round"/>
</svg>
