<svg width="56" height="56" viewBox="0 0 56 56" fill="none" xmlns="http://www.w3.org/2000/svg">
<path d="M21 7H35V17.5C35 19.425 36.575 21 38.5 21H49V31.5H52.5V17.5C52.5 16.975 52.325 16.625 51.975 16.275L39.725 4.025C39.375 3.675 39.025 3.5 38.5 3.5H21C19.075 3.5 17.5 5.075 17.5 7V49C17.5 50.925 19.075 52.5 21 52.5H28V49H21V7ZM38.5 7.7L48.3 17.5H38.5V7.7ZM52.5 38.5L38.5 52.5L31.5 45.5L33.95 43.05L38.5 47.6L50.05 36.05L52.5 38.5ZM7 47.25H3.5V12.25H7V47.25ZM14 49H10.5V7H14V49Z" fill="#FF8B00"/>
</svg>
