<svg width="80" height="80" viewBox="0 0 80 80" fill="none" xmlns="http://www.w3.org/2000/svg">
<path d="M34.12 12.048C34.7413 12.0053 35.368 11.984 36 11.984C39.8368 11.9839 43.6326 12.7724 47.1519 14.3005C50.6713 15.8286 53.839 18.0636 56.4585 20.867C59.0781 23.6703 61.0935 26.9821 62.3798 30.5968C63.6661 34.2115 64.1958 38.052 63.936 41.88C63.901 42.4094 64.0777 42.9309 64.4273 43.33C64.7769 43.7291 65.2706 43.973 65.8 44.008C66.3294 44.043 66.851 43.8663 67.2501 43.5167C67.6491 43.1671 67.893 42.6734 67.928 42.144C67.976 41.432 68 40.712 68 39.984C68 35.6011 67.0996 31.2649 65.3547 27.2443C63.6098 23.2237 61.0576 19.6044 57.8562 16.6109C54.6549 13.6173 50.8728 11.3133 46.7443 9.84174C42.6158 8.37014 38.2291 7.76232 33.856 8.05598C33.5939 8.07331 33.3378 8.1421 33.1022 8.25843C32.8667 8.37475 32.6564 8.53633 32.4833 8.73393C32.3102 8.93153 32.1777 9.16129 32.0934 9.41009C32.0091 9.65889 31.9747 9.92186 31.992 10.184C32.0093 10.4461 32.0781 10.7022 32.1945 10.9378C32.3108 11.1733 32.4724 11.3836 32.67 11.5567C32.8676 11.7298 33.0973 11.8623 33.3461 11.9466C33.5949 12.0308 33.8579 12.0653 34.12 12.048ZM32 19.936C32.0108 19.6729 32.0734 19.4146 32.1843 19.1757C32.2952 18.9369 32.4521 18.7224 32.6461 18.5444C32.8401 18.3663 33.0673 18.2284 33.3148 18.1384C33.5622 18.0484 33.825 18.0082 34.088 18.02C40.3367 18.2923 46.2564 20.897 50.6787 25.3201C55.101 29.7431 57.7047 35.6632 57.976 41.912C57.9906 42.1763 57.9526 42.4409 57.8642 42.6904C57.7758 42.9399 57.6388 43.1693 57.461 43.3655C57.2833 43.5616 57.0684 43.7205 56.8287 43.833C56.5891 43.9454 56.3295 44.0092 56.0651 44.0206C55.8006 44.032 55.5365 43.9908 55.2881 43.8993C55.0397 43.8079 54.8119 43.668 54.618 43.4879C54.424 43.3077 54.2678 43.0909 54.1582 42.8499C54.0487 42.6089 53.9882 42.3486 53.98 42.084C53.751 36.8369 51.5641 31.8662 47.8507 28.1521C44.1373 24.4379 39.167 22.2501 33.92 22.02C33.6569 22.0097 33.3985 21.9476 33.1595 21.8372C32.9205 21.7268 32.7057 21.5703 32.5273 21.3767C32.3489 21.183 32.2105 20.9561 32.12 20.7089C32.0295 20.4617 31.9887 20.199 32 19.936ZM30 50.484C31.1935 50.484 32.3381 50.0099 33.182 49.166C34.0259 48.322 34.5 47.1775 34.5 45.984C34.5 44.7905 34.0259 43.6459 33.182 42.802C32.3381 41.9581 31.1935 41.484 30 41.484C28.8065 41.484 27.6619 41.9581 26.818 42.802C25.9741 43.6459 25.5 44.7905 25.5 45.984C25.5 47.1775 25.9741 48.322 26.818 49.166C27.6619 50.0099 28.8065 50.484 30 50.484ZM17.272 58.712L28.584 70.024C28.7698 70.2102 28.9905 70.358 29.2335 70.4588C29.4765 70.5597 29.7369 70.6115 30 70.6115C30.2631 70.6115 30.5236 70.5597 30.7665 70.4588C31.0095 70.358 31.2302 70.2102 31.416 70.024L42.728 58.712C45.2453 56.1946 46.9596 52.9873 47.6542 49.4957C48.3487 46.004 47.9922 42.3848 46.6298 39.0958C45.2674 35.8067 42.9603 32.9955 40.0002 31.0177C37.0402 29.0398 33.5601 27.9841 30 27.9841C26.44 27.9841 22.9598 29.0398 19.9998 31.0177C17.0397 32.9955 14.7326 35.8067 13.3702 39.0958C12.0078 42.3848 11.6513 46.004 12.3459 49.4957C13.0404 52.9873 14.7547 56.1946 17.272 58.712ZM20.1 55.884C18.1422 53.926 16.809 51.4314 16.2689 48.7157C15.7288 46 16.0062 43.1852 17.0658 40.6271C18.1255 38.069 19.9199 35.8826 22.2222 34.3443C24.5244 32.806 27.2311 31.985 30 31.985C32.7689 31.985 35.4756 32.806 37.7778 34.3443C40.0801 35.8826 41.8745 38.069 42.9342 40.6271C43.9939 43.1852 44.2712 46 43.7311 48.7157C43.191 51.4314 41.8578 53.926 39.9 55.884L30 65.784L20.1 55.884Z" fill="white"/>
</svg>
