<svg width="46" height="46" viewBox="0 0 46 46" fill="none" xmlns="http://www.w3.org/2000/svg">
<path d="M15.3333 17.25H30.6667M15.3333 24.9167H26.8333M22.9808 35.6615L15.3333 40.25V34.5H11.5C9.975 34.5 8.51247 33.8942 7.43414 32.8159C6.3558 31.7376 5.75 30.275 5.75 28.75V13.4167C5.75 11.8917 6.3558 10.4292 7.43414 9.35082C8.51247 8.27249 9.975 7.66669 11.5 7.66669H34.5C36.025 7.66669 37.4875 8.27249 38.5659 9.35082C39.6442 10.4292 40.25 11.8917 40.25 13.4167V23.9584M36.4167 42.1667V30.6667M36.4167 30.6667L42.1667 36.4167M36.4167 30.6667L30.6667 36.4167" stroke="#FF8B00" stroke-width="4" stroke-linecap="round" stroke-linejoin="round"/>
</svg>
