<svg width="35" height="35" viewBox="0 0 35 35" fill="none" xmlns="http://www.w3.org/2000/svg">
<path d="M16.0271 13.7799C16.2867 18.2861 13.1133 24.6357 5.99375 27.7084L4.375 24.9084C7.28729 23.2707 9.48938 20.6063 10.6546 17.398C6.44583 17.0568 5.21646 14.4624 5.21646 12.3463C5.21646 9.4778 7.41854 7.22468 10.1369 7.29322C12.7254 7.22468 15.7033 9.2051 16.0271 13.7799ZM30.6104 13.7799C30.87 18.2861 27.6981 24.6357 20.5771 27.7084L18.9583 24.9084C21.8721 23.2707 24.0727 20.6063 25.2379 17.398C21.0292 17.0568 19.7998 14.4624 19.7998 12.3463C19.7998 9.4778 22.0019 7.22468 24.7202 7.29322C27.3088 7.22468 30.2867 9.2051 30.6104 13.7799Z" stroke="#FF8B00" stroke-width="2.1875" stroke-miterlimit="10" stroke-linecap="round" stroke-linejoin="round"/>
</svg>
