<svg width="35" height="35" viewBox="0 0 35 35" fill="none" xmlns="http://www.w3.org/2000/svg">
<path d="M26.0365 2.24349L26.6455 4.11774C26.8345 4.68801 27.1544 5.20612 27.5795 5.63063C28.0046 6.05514 28.5232 6.37427 29.0938 6.56249L30.968 7.17149L31.0047 7.18199C31.1493 7.23288 31.2745 7.32738 31.3631 7.45245C31.4516 7.57752 31.4992 7.72699 31.4992 7.88024C31.4992 8.03349 31.4516 8.18297 31.3631 8.30804C31.2745 8.43311 31.1493 8.52761 31.0047 8.57849L29.1305 9.18749C28.56 9.37571 28.0414 9.69485 27.6163 10.1194C27.1912 10.5439 26.8713 11.062 26.6822 11.6322L26.0732 13.5047C26.0224 13.6493 25.9279 13.7745 25.8028 13.8631C25.6777 13.9516 25.5283 13.9992 25.375 13.9992C25.2217 13.9992 25.0723 13.9516 24.9472 13.8631C24.8221 13.7745 24.7276 13.6493 24.6768 13.5047L24.066 11.6322C23.8785 11.0607 23.5596 10.5411 23.135 10.115C22.7102 9.68809 22.1911 9.36682 21.6195 9.17699L19.7453 8.56799C19.6007 8.51711 19.4755 8.42261 19.3869 8.29754C19.2984 8.17247 19.2508 8.02299 19.2508 7.86974C19.2508 7.71649 19.2984 7.56702 19.3869 7.44195C19.4755 7.31688 19.6007 7.22238 19.7453 7.17149L21.6195 6.56249C22.1829 6.36918 22.6938 6.04777 23.1119 5.62355C23.5301 5.19934 23.8441 4.68388 24.0292 4.11774L24.6383 2.24524C24.6888 2.10008 24.7832 1.97424 24.9085 1.88519C25.0338 1.79614 25.1837 1.74829 25.3374 1.74829C25.4911 1.74829 25.641 1.79614 25.7663 1.88519C25.8915 1.97424 25.986 2.10008 26.0365 2.24524M34.6203 16.1245L33.2798 15.6905C32.873 15.5545 32.5034 15.3258 32.2003 15.0223C31.8972 14.7189 31.6688 14.3491 31.5332 13.9422L31.0957 12.6052C31.0595 12.5019 30.9921 12.4123 30.9027 12.349C30.8134 12.2856 30.7065 12.2516 30.597 12.2516C30.4875 12.2516 30.3806 12.2856 30.2913 12.349C30.2019 12.4123 30.1345 12.5019 30.0982 12.6052L29.6642 13.9422C29.5311 14.3465 29.3065 14.7146 29.0078 15.0179C28.7091 15.3211 28.3445 15.5513 27.9422 15.6905L26.6035 16.1245C26.5009 16.1615 26.4123 16.2293 26.3496 16.3185C26.2869 16.4078 26.2533 16.5142 26.2533 16.6232C26.2533 16.7323 26.2869 16.8387 26.3496 16.928C26.4123 17.0172 26.5009 17.085 26.6035 17.122L27.9422 17.5577C28.3502 17.6938 28.7208 17.9231 29.0246 18.2275C29.3284 18.5319 29.557 18.903 29.6922 19.3112L30.1263 20.6482C30.1625 20.7516 30.2299 20.8412 30.3193 20.9045C30.4086 20.9679 30.5155 21.0019 30.625 21.0019C30.7345 21.0019 30.8414 20.9679 30.9307 20.9045C31.0201 20.8412 31.0875 20.7516 31.1237 20.6482L31.5595 19.3112C31.6953 18.9042 31.9239 18.5343 32.2273 18.2308C32.5308 17.9274 32.9007 17.6987 33.3078 17.563L34.6465 17.129C34.7491 17.092 34.8377 17.0242 34.9004 16.935C34.9631 16.8457 34.9967 16.7393 34.9967 16.6302C34.9967 16.5212 34.9631 16.4148 34.9004 16.3255C34.8377 16.2363 34.7491 16.1685 34.6465 16.1315L34.6203 16.1245ZM30.6285 22.75C30.324 22.75 30.0265 22.6887 29.75 22.575V24.717C29.7497 24.8921 29.6968 25.0632 29.5982 25.2079C29.4996 25.3527 29.3599 25.4645 29.197 25.529L18.697 29.6887C18.5643 29.7413 18.4207 29.7605 18.2789 29.7448C18.137 29.7292 18.0011 29.679 17.8831 29.5988C17.765 29.5185 17.6684 29.4106 17.6016 29.2845C17.5349 29.1583 17.5 29.0177 17.5 28.875V17.2847C17.5 17.1093 17.5527 16.9379 17.6513 16.7928C17.7499 16.6477 17.8899 16.5356 18.053 16.471L23.1753 14.441C23.1137 14.3286 23.061 14.2116 23.0177 14.091L22.589 12.7925L17.409 14.8435C16.9196 15.0372 16.4997 15.3735 16.2039 15.8089C15.908 16.2442 15.7499 16.7584 15.75 17.2847V28.875C15.7499 29.3032 15.8546 29.7249 16.0549 30.1034C16.2552 30.4819 16.5451 30.8056 16.8992 31.0463C17.2533 31.2871 17.661 31.4375 18.0866 31.4846C18.5122 31.5316 18.9428 31.4738 19.341 31.3162L29.841 27.1565C30.3301 26.9629 30.7498 26.6268 31.0456 26.1918C31.3414 25.7569 31.4997 25.243 31.5 24.717V22.61C31.2194 22.7049 30.9247 22.7517 30.6285 22.7482M17.955 9.30474C17.8459 9.15121 17.7549 8.98562 17.6837 8.81124L10.962 11.4712C10.3092 11.7296 9.74916 12.1783 9.35469 12.7591C8.96021 13.3399 8.74953 14.0259 8.75 14.728V25.3732C8.7501 25.8015 8.85498 26.2233 9.0555 26.6017C9.25603 26.9801 9.5461 27.3037 9.90041 27.5443C10.2547 27.7849 10.6625 27.9351 11.0882 27.9819C11.5139 28.0287 11.9446 27.9706 12.3427 27.8127L14 27.1547V25.27L11.697 26.1835C11.5644 26.236 11.421 26.2552 11.2793 26.2396C11.1376 26.224 11.0018 26.1741 10.8838 26.094C10.7658 26.014 10.6691 25.9063 10.6023 25.7804C10.5354 25.6544 10.5003 25.5141 10.5 25.3715V14.7262C10.4999 14.3753 10.6054 14.0325 10.8026 13.7423C10.9998 13.4521 11.2797 13.2279 11.606 13.0987L19.0155 10.1657C18.5875 9.98509 18.2197 9.68648 17.955 9.30474ZM19.1625 5.51949L19.978 5.25699C19.861 4.92318 19.6777 4.61646 19.4392 4.35525C19.2007 4.09404 18.9118 3.88373 18.59 3.73695C18.2682 3.59017 17.92 3.50995 17.5664 3.50111C17.2128 3.49227 16.861 3.55498 16.5322 3.68549L6.26325 7.75249C5.4479 8.07559 4.74849 8.63628 4.25575 9.36181C3.76301 10.0873 3.49971 10.9442 3.5 11.8212V21.8697C3.49978 22.2898 3.60037 22.7038 3.79333 23.0769C3.98629 23.45 4.26598 23.7714 4.60889 24.014C4.95181 24.2566 5.34795 24.4134 5.76402 24.4712C6.1801 24.5289 6.60396 24.486 7 24.346V22.4647L6.447 22.6835C6.31428 22.736 6.17073 22.7553 6.02886 22.7396C5.88699 22.7239 5.75111 22.6738 5.63307 22.5935C5.51502 22.5133 5.41841 22.4054 5.35164 22.2792C5.28487 22.1531 5.24998 22.0125 5.25 21.8697V11.8212C5.24991 11.2949 5.40805 10.7807 5.70388 10.3454C5.99972 9.91003 6.4196 9.57369 6.909 9.37999L17.1762 5.31299C17.2977 5.2647 17.4285 5.24424 17.5589 5.25312C17.6893 5.26199 17.816 5.29996 17.9299 5.36425C18.0437 5.42854 18.1416 5.51751 18.2165 5.62463C18.2914 5.73175 18.3414 5.85428 18.3628 5.98324C18.5972 5.78141 18.8644 5.62683 19.1643 5.51949" fill="#FF8B00"/>
</svg>
