<svg width="28" height="28" viewBox="0 0 28 28" fill="none" xmlns="http://www.w3.org/2000/svg">
<path d="M5.83333 15.1667V25.6667H3.5V15.1667H5.83333ZM26.8333 15.1667V17.5H24.5V25.6667H22.1667V17.5H19.8333V15.1667H26.8333ZM14 12.8333C15.6346 12.8422 17.2345 13.3064 18.62 14.1738L20.3082 12.4822C18.4561 11.195 16.2554 10.5035 14 10.5C11.7748 10.5042 9.60397 11.188 7.77817 12.46L9.46867 14.1552C10.826 13.2999 12.3957 12.842 14 12.8333Z" fill="#FF8B00"/>
<path d="M14 8.16659C16.8727 8.17304 19.6674 9.10135 21.973 10.8149L23.6378 9.14659C20.8821 7.00296 17.4913 5.83727 14 5.83325C10.5389 5.83738 7.17805 6.99598 4.44967 9.12559L6.11334 10.7939C8.39166 9.09353 11.1571 8.17226 14 8.16659Z" fill="#FF8B00"/>
<path d="M14 3.50006C18.1103 3.5006 22.0972 4.90409 25.3015 7.47839L26.9663 5.81123C23.3284 2.81216 18.7615 1.17037 14.0467 1.16675C9.33199 1.16314 4.7625 2.79791 1.12 5.79139L2.78484 7.45856C5.96219 4.89831 9.9195 3.50154 14 3.50006ZM14 15.1667C12.9617 15.1667 11.9466 15.4746 11.0833 16.0515C10.2199 16.6284 9.547 17.4483 9.14964 18.4076C8.75227 19.367 8.64831 20.4226 8.85088 21.441C9.05345 22.4594 9.55347 23.3948 10.2877 24.129C11.0219 24.8633 11.9574 25.3633 12.9758 25.5659C13.9942 25.7684 15.0498 25.6645 16.0091 25.2671C16.9684 24.8697 17.7883 24.1968 18.3652 23.3335C18.9421 22.4701 19.25 21.4551 19.25 20.4167C19.25 19.0243 18.6969 17.689 17.7123 16.7044C16.7277 15.7199 15.3924 15.1667 14 15.1667ZM14 23.3334C13.4231 23.3334 12.8592 23.1623 12.3796 22.8419C11.8999 22.5214 11.5261 22.0658 11.3054 21.5329C11.0846 20.9999 11.0268 20.4135 11.1394 19.8477C11.2519 19.2819 11.5297 18.7622 11.9376 18.3543C12.3455 17.9464 12.8652 17.6686 13.431 17.5561C13.9968 17.4436 14.5832 17.5013 15.1162 17.7221C15.6491 17.9428 16.1046 18.3167 16.4251 18.7963C16.7456 19.276 16.9167 19.8399 16.9167 20.4167C16.9167 21.1903 16.6094 21.9321 16.0624 22.4791C15.5154 23.0261 14.7736 23.3334 14 23.3334Z" fill="#FF8B00"/>
</svg>
