<svg width="35" height="35" viewBox="0 0 35 35" fill="none" xmlns="http://www.w3.org/2000/svg">
<path d="M7.84729 30.8692H23.3166C27.5545 30.8692 30.9896 27.4333 30.9896 23.1961V4.13062H15.5254C15.0215 4.13042 14.5225 4.22954 14.0569 4.42229C13.5913 4.61504 13.1682 4.89766 12.8119 5.25398C12.4556 5.61031 12.173 6.03336 11.9802 6.49896C11.7875 6.96455 11.6883 7.46357 11.6885 7.96749L11.6834 11.6862" stroke="#FF8B00" stroke-width="2" stroke-linecap="round" stroke-linejoin="round"/>
<path d="M4.01041 18.5142H11.6834M16.3603 18.5142H26.1027M16.3603 23.4623H26.1027M7.84729 11.6862H11.6834V27.0323C11.683 28.0496 11.2788 29.0252 10.5595 29.7447C9.84016 30.4641 8.86465 30.8686 7.84729 30.8692C6.82981 30.8688 5.85411 30.4644 5.13464 29.7449C4.41517 29.0255 4.0108 28.0498 4.01041 27.0323V15.5224C4.01099 14.505 4.41544 13.5295 5.13489 12.8102C5.85434 12.0909 6.82993 11.6866 7.84729 11.6862ZM16.3603 9.70874H20.6172V13.9656H16.3603V9.70874Z" stroke="#FF8B00" stroke-width="2" stroke-linecap="round" stroke-linejoin="round"/>
</svg>
