<svg width="84" height="43" viewBox="0 0 84 43" fill="none" xmlns="http://www.w3.org/2000/svg">
<path d="M16.3632 43C7.85231 43.0105 1.08758 36.7692 0.118242 28.7356C-0.978277 19.6344 5.69708 11.6569 14.1049 10.7538C14.4074 10.7222 14.8405 10.8798 14.8508 10.3022C14.8576 9.68961 14.397 9.79813 14.0396 9.71762C10.0007 8.8075 7.14765 5.66058 6.80048 1.73307C6.66298 0.175361 6.97234 -0.157183 8.52947 0.0598451C11.5681 0.483401 13.9227 2.0026 15.3801 4.78547C15.827 5.63958 16.1226 5.68508 16.6795 4.92198C17.1951 4.21839 17.8928 3.69332 18.6044 3.19976C19.0237 2.90922 19.4568 2.69219 19.8384 3.22076C20.2337 3.77033 20.0103 4.19389 19.5084 4.53343C17.9857 5.56607 16.9269 6.91024 16.5488 8.79349C16.2154 10.4492 16.2876 10.5472 17.8997 10.8063C23.6504 11.7374 27.8681 14.8213 30.3086 20.2435C30.6833 21.0766 31.0923 21.2831 31.9173 21.2691C34.7944 21.2201 37.6714 21.2901 40.5485 21.2306C41.7 21.2061 42.0197 21.6542 41.9991 22.7778C41.8719 30.4438 36.2621 37.7213 28.9062 39.6921C27.9953 39.9371 27.0912 40.1961 26.1356 40.2346C25.0116 40.2766 23.9873 40.6057 22.9905 41.1868C20.7802 42.4749 18.3431 42.9195 16.3632 43ZM28.9749 21.3391C26.0394 13.7256 17.1607 10.2357 9.83223 13.6731C2.43503 17.1421 -0.576107 26.4393 3.32874 33.7588C7.17515 40.9732 15.9095 43.1015 20.9693 40.2906C20.2543 40.1016 19.5668 39.9336 18.8862 39.7411C11.6472 37.6793 6.21956 30.5033 6.05113 22.8933C6.02363 21.6297 6.4808 21.2691 7.61857 21.3321C8.73228 21.3952 9.84941 21.3426 10.9666 21.3426C16.9338 21.3391 22.8976 21.3391 28.9749 21.3391ZM9.15163 22.9914C7.52232 22.8058 7.42263 22.9108 7.66669 24.5036C8.75633 31.606 14.0877 37.2347 20.9727 38.5509C27.7203 39.8426 34.674 36.6116 38.2283 30.5243C39.4726 28.3961 40.1841 26.0858 40.5313 23.6389C40.6447 22.8443 40.2151 22.8338 39.7235 22.9073C39.4348 22.9494 38.7748 22.6098 38.9364 23.3274C39.5551 26.1138 38.1458 28.2946 36.9393 30.5383C36.3205 31.69 34.8356 31.669 34.1688 32.3761C33.4985 33.0867 33.5157 34.5289 32.4157 35.215C30.8345 36.2056 29.1605 36.9407 27.3422 37.3502C26.3213 37.5813 25.3829 37.4973 24.5407 36.8252C24.2691 36.6046 24.056 36.3806 23.6779 36.7237C22.5333 37.7563 21.2305 37.5498 19.9175 37.1332C18.1506 36.5731 15.9989 36.1216 15.167 34.5254C14.2424 32.7611 12.5202 32.1871 11.4925 30.8429C9.77723 28.6026 8.58447 26.0193 9.15163 22.9914ZM13.9949 30.4893C14.3936 30.4788 14.7511 30.3773 15.0467 30.0798C16.6829 28.4136 18.3088 26.7404 19.9621 25.0951C20.3368 24.7241 20.2371 24.4265 20.0034 24.08C19.7215 23.6564 19.8831 22.8863 19.0478 22.8968C16.6932 22.9179 14.3317 22.8618 11.9806 22.9529C10.9975 22.9914 10.3616 23.751 10.5403 24.7451C10.86 26.5513 11.5268 28.2525 12.5752 29.7752C12.9259 30.2863 13.3933 30.5208 13.9949 30.4893ZM32.4569 22.9038C32.4569 22.9003 32.4569 22.9003 32.4569 22.8968C31.2986 22.8968 30.1402 22.9249 28.9852 22.8828C28.4077 22.8618 28.2634 23.1594 28.1706 23.6389C28.0777 24.136 27.4315 24.5316 28.0503 25.1406C29.6796 26.7474 31.247 28.4241 32.8866 30.0203C33.6944 30.8079 34.8184 30.6679 35.4337 29.7262C36.3652 28.3016 37.0286 26.7439 37.3414 25.0531C37.5992 23.6599 37.063 22.9634 35.6709 22.9073C34.6019 22.8688 33.5294 22.9038 32.4569 22.9038ZM23.3307 30.6784C23.3307 29.5897 23.2895 28.4976 23.3479 27.4124C23.3823 26.7684 23.1417 26.4603 22.5642 26.3238C22.0349 26.2013 21.588 25.6517 20.9727 26.3203C19.4534 27.9725 17.831 29.5267 16.291 31.1579C15.4523 32.0471 15.5417 33.0027 16.5248 33.7028C17.9375 34.7109 19.505 35.397 21.2099 35.6945C22.5402 35.9291 23.2689 35.3165 23.317 33.9443C23.3582 32.8557 23.3273 31.767 23.3307 30.6784ZM26.3762 35.796C28.3493 35.4705 30.147 34.7774 31.687 33.5592C32.5257 32.8977 32.5463 32.0085 31.7385 31.1929C30.1608 29.5967 28.6002 27.983 27.0156 26.3973C26.4622 25.8407 24.8501 26.3203 24.8363 27.0799C24.7985 29.5617 24.826 32.0435 24.9016 34.5219C24.9326 35.411 25.6028 35.7505 26.3762 35.796ZM9.18601 1.82408C8.45728 1.75407 8.45728 1.75407 8.57071 2.47866C8.97632 5.034 11.5681 7.63834 14.1049 8.03739C14.4624 8.0934 14.892 8.29993 14.8439 7.57883C14.672 5.16352 11.6403 2.06561 9.18601 1.82408ZM24.0457 22.8898V22.8933C23.4029 22.8933 22.7567 22.9213 22.1139 22.8863C21.4333 22.8478 21.2236 23.0509 21.6121 23.6845C22.193 24.6226 23.0626 25.0321 24.111 25.0181C25.1732 25.0041 25.9878 24.5071 26.5344 23.5549C26.8644 22.9844 26.6066 22.8793 26.1013 22.8898C25.4172 22.9003 24.7332 22.8898 24.0457 22.8898Z" fill="white"/>
<path d="M80.8969 10.0762C80.6512 6.63868 78.2429 6.07702 75.6416 5.77842C74.5041 5.64689 73.3667 5.62201 72.2327 5.80686C69.7016 6.21566 67.9779 7.97885 67.4092 10.7445C66.9493 12.9769 67.7883 14.829 69.9754 16.2402C72.2433 17.7012 74.8622 18.366 77.2845 19.4787C78.1201 19.8626 78.9661 20.2358 79.7455 20.7193C83.0841 22.7846 84.4637 25.8062 83.8634 29.6205C83.3298 33.0118 80.6477 35.6672 77.0809 36.5666C73.7599 37.4055 70.5792 36.9434 67.4021 35.8912C64.8675 35.0487 64.857 35.0807 64.8534 32.3399C64.8534 31.5117 64.8534 30.6834 64.8534 29.6703C65.1238 29.8942 65.2747 29.9582 65.2852 30.0329C65.6188 33.3424 67.9357 34.551 70.7126 35.0629C73.0191 35.4895 75.3256 35.3829 77.4671 34.128C80.8654 32.1373 82.4206 26.2754 77.6531 23.3676C75.2413 21.8995 72.5241 21.1281 69.9684 19.9905C67.5461 18.9099 65.3484 17.5519 64.4392 14.8503C62.8348 10.0868 65.7732 5.34118 70.8566 4.29962C73.1806 3.82328 75.4695 3.9477 77.7585 4.44181C78.1446 4.52357 78.5238 4.62666 78.9099 4.70487C81.3182 5.20965 81.3182 5.2061 81.3182 7.75134C81.3182 8.48719 81.3182 9.22303 81.3182 9.95888C81.1778 9.99442 81.0374 10.0335 80.8969 10.0762Z" fill="white"/>
<path d="M58.5976 10.4068C58.2353 6.65132 55.7402 6.62722 53.0673 6.70984C50.0048 6.80278 50.0014 6.73049 49.998 9.75623C49.9946 17.4153 49.998 25.0708 49.9946 32.7299C49.9946 34.0827 50.2475 35.284 51.6557 36C49.4785 36 47.2978 36 45.1206 36C46.5835 35.3219 46.8124 34.062 46.8124 32.6782C46.8124 24.3755 46.8022 16.0728 46.8296 7.77005C46.833 6.89572 46.5424 6.66853 45.7187 6.71672C44.5258 6.78557 43.3261 6.72705 42.1332 6.73393C39.8979 6.74426 38.9169 7.57384 38.4658 9.82508C38.4418 9.93523 38.353 10.0351 38.0078 10.1383C38.0078 8.52391 37.9804 6.90605 38.0283 5.29507C38.0385 4.88544 38.4965 5.02313 38.7666 5.02313C45.2163 5.01625 51.666 5.01625 58.1157 5.02313C58.4575 5.02313 58.977 4.84758 58.9872 5.46374C59.0112 7.0162 58.9941 8.5721 58.9941 10.1246C58.8608 10.2175 58.7309 10.3104 58.5976 10.4068Z" fill="white"/>
</svg>
