<svg width="135" height="148" viewBox="0 0 135 148" fill="none" xmlns="http://www.w3.org/2000/svg">
<g opacity="0.1" clip-path="url(#clip0_124_20765)">
<path d="M117.809 54.4048C117.809 60.423 117.887 66.4412 117.771 72.4498C117.732 74.4719 118.06 75.7237 120.307 76.3593C122.948 77.1007 125.368 78.5836 128 79.3635C131.269 80.3265 131.973 81.9249 130.903 85.1988C125.879 100.577 121.088 116.022 116.209 131.448C115.862 132.536 114.849 133.816 115.91 134.683C116.836 135.444 118.166 134.779 119.304 134.288C122.813 132.776 125.841 130.205 129.765 129.57C131.298 129.32 133.091 128.568 133.65 130.716C134.229 132.921 132.204 132.776 130.883 133.065C127.885 133.72 125.282 135.241 122.717 136.782C118.581 139.266 114.435 139.459 110.549 136.657C105.401 132.94 100.407 133.181 95.0941 136.185C89.0007 139.632 82.8494 139.344 77.0452 135.521C71.5978 131.919 66.3914 131.987 60.915 135.434C54.9373 139.189 48.6896 139.324 42.5384 135.771C36.6956 132.401 31.0457 132.343 25.2705 136.012C19.7074 139.546 14.1924 139.151 8.78356 135.415C6.72028 133.99 4.45453 132.834 1.91882 132.353C0.771486 132.131 -0.250511 131.515 0.0676576 130.177C0.405109 128.771 1.53316 128.414 2.90225 128.732C5.27406 129.281 7.41447 130.36 9.53559 131.505C11.2229 132.42 12.8908 133.364 14.6167 134.202C16.3136 135.03 18.2322 135.444 19.7652 134.23C21.3946 132.94 19.8713 131.38 19.447 130.032C14.7516 115.059 10.0562 100.076 5.22585 85.141C4.27134 82.1945 4.64736 80.5287 7.86761 79.4887C11.3771 78.3621 15.7543 77.5244 17.8369 74.9919C19.987 72.3824 18.454 67.8278 18.4925 64.1206C18.5793 54.9729 18.4925 45.8349 18.5311 36.6872C18.56 30.2453 20.8258 28.0306 27.247 28.0017C30.1394 27.992 33.0319 27.9054 35.9243 28.0306C37.7466 28.1172 38.3733 27.6358 38.4504 25.6714C38.8361 15.2142 38.9035 15.2431 49.3453 15.2142C52.9415 15.2045 57.608 16.3793 59.8545 14.5883C62.207 12.7106 60.539 7.84787 60.5487 4.30434C60.5583 1.16524 61.8792 -0.0865496 64.897 0.0290002C67.0663 0.106033 69.2356 0.125292 71.405 0.0290002C74.5577 -0.115437 75.7533 1.46374 75.6665 4.42952C75.599 6.83681 75.8111 9.25372 75.6087 11.6418C75.3773 14.3283 76.0522 15.503 79.07 15.2912C83.1483 15.0023 87.2556 15.1756 91.3532 15.2238C96.0486 15.2816 97.6009 16.88 97.6394 21.5405C97.6973 28.0017 97.6973 28.0017 104.302 27.992C106.105 27.992 107.917 27.9728 109.72 28.0017C114.917 28.0883 117.752 30.8326 117.809 36.0131C117.867 42.1373 117.809 48.271 117.809 54.4048ZM68.2329 76.8407C67.1724 77.1681 66.3625 77.3896 65.5815 77.6784C50.4733 83.1863 35.3748 88.6942 20.2762 94.2117C17.914 95.0783 14.5106 95.3672 13.5175 97.0619C12.3895 98.9974 14.5395 101.896 15.2819 104.361C17.8465 112.854 20.5269 121.308 23.294 129.734C23.5832 130.6 23.4386 132.988 25.6658 131.669C32.3088 127.731 38.6239 129.397 44.7945 132.757C49.432 135.29 54.0021 135.386 58.4083 132.507C65.7069 127.75 72.8319 128.087 79.957 132.805C83.9389 135.444 88.0655 135.444 92.2884 133.402C93.8021 132.671 95.3448 132.006 96.8778 131.322C101.091 129.454 105.275 129.194 109.248 131.881C111.658 133.508 112.169 132.083 112.767 130.128C115.862 120.047 118.86 109.936 122.273 99.9603C123.209 97.216 122.495 96.5708 120.152 95.7331C105.478 90.466 90.8422 85.064 76.1968 79.7198C73.4972 78.7184 70.7879 77.7555 68.2329 76.8407ZM22.2431 73.2587C23.6604 73.4994 24.5667 72.8061 25.5404 72.4113C38.7878 67.0864 52.0449 61.7904 65.2537 56.3595C67.317 55.5121 69.0139 55.5507 71.0482 56.3884C84.3631 61.8674 97.7551 67.1442 111.051 72.6617C113.779 73.7979 114.165 73.1431 114.136 70.4855C114.011 59.4216 114.088 48.3481 114.078 37.2745C114.078 32.5563 113.133 31.6126 108.39 31.6126C88.8753 31.603 69.3513 31.6126 49.837 31.6126C42.1238 31.6126 34.4203 31.6319 26.7071 31.5933C24.2389 31.5837 22.272 32.2289 22.2623 35.0791C22.2141 47.8185 22.2431 60.5482 22.2431 73.2587ZM123.44 92.9888C124.52 93.2584 124.645 92.2762 124.906 91.5155C125.552 89.5801 126.034 87.5868 126.795 85.7092C127.547 83.8507 127.104 83.0034 125.195 82.2427C106.808 74.8956 88.4608 67.4715 70.1227 60.009C68.6764 59.4216 67.4809 59.4601 66.0443 60.0475C49.1621 66.9227 32.2413 73.7112 15.3398 80.5576C8.47503 83.3404 8.59073 83.3596 10.789 90.3889C11.5121 92.6999 12.3027 93.2873 14.7034 92.3918C31.4507 86.1617 48.2751 80.0954 65.032 73.8846C67.2109 73.0757 69.0621 73.1046 71.2314 73.9231C84.4885 78.8917 97.7937 83.7256 111.089 88.5883C115.148 90.0712 119.227 91.4866 123.44 92.9888ZM68.0015 27.992C74.6059 27.992 81.22 27.992 87.8244 27.992C94.4192 27.992 94.3421 28.0017 93.966 21.3576C93.86 19.4317 93.0597 18.8732 91.3243 18.8732C75.8304 18.8925 60.3269 18.8925 44.8331 18.854C42.818 18.8444 41.9695 19.6725 42.1045 21.6657C42.172 22.7442 42.2395 23.8419 42.0852 24.9011C41.7092 27.501 42.8469 28.098 45.3055 28.0498C52.8548 27.8958 60.433 27.992 68.0015 27.992ZM64.2703 9.61C64.2606 15.5319 64.2606 15.4549 69.5152 15.2623C71.1639 15.2045 71.9256 14.829 71.8099 13.0476C71.6846 11.141 71.6171 9.20558 71.8196 7.30864C72.1281 4.49692 71.1254 3.72659 68.2715 3.63993C64.9259 3.53401 63.7014 4.57396 64.251 7.80935C64.3474 8.39673 64.2703 9.00337 64.2703 9.61Z" fill="white"/>
<path d="M87.0916 147.933C83.5628 147.99 80.4871 146.43 77.6815 144.659C72.5233 141.414 67.5579 141.327 62.4865 144.562C56.1038 148.636 49.5669 148.799 43.0975 144.996C37.409 141.654 31.9809 141.866 26.4949 145.323C20.7582 148.934 15.1661 148.559 9.66084 144.726C7.79039 143.426 5.73676 142.415 3.49029 141.857C2.17905 141.529 0.674982 141.144 1.3306 139.315C1.92837 137.649 3.29746 138.121 4.65691 138.39C7.4433 138.958 9.85367 140.345 12.1194 141.866C16.1496 144.582 20.1701 144.909 24.2388 142.28C31.3445 137.687 38.3828 137.764 45.6043 142.02C50.3672 144.822 55.1975 144.688 59.9026 141.683C66.6709 137.36 73.4296 137.36 80.169 141.799C84.8355 144.871 89.6851 144.976 94.4673 142.223C101.081 138.409 107.425 138.544 113.683 142.935C116.353 144.813 118.995 144.553 121.782 142.993C124.809 141.308 127.779 139.382 131.298 138.804C132.705 138.573 134.451 138.14 134.923 140.066C135.444 142.174 133.631 142.29 132.214 142.473C129.254 142.858 126.805 144.408 124.346 145.882C119.892 148.559 115.428 148.876 111.166 145.814C106.384 142.386 101.708 142.608 96.7138 145.236C93.7345 146.806 90.6011 148.096 87.0916 147.933Z" fill="white"/>
<path d="M68.1076 53.4321C65.5815 53.4321 63.0555 53.384 60.5294 53.4418C57.9262 53.4995 56.8271 52.2285 56.8463 49.7056C56.9235 37.4574 55.6315 38.8921 67.182 38.8536C69.7081 38.844 72.2341 38.8247 74.7602 38.8536C78.8 38.9017 79.4074 39.6721 79.4267 44.6311C79.4556 53.0277 79.3014 53.3455 74.9627 53.4225C72.6777 53.4706 70.3926 53.4321 68.1076 53.4321ZM67.558 49.8019C69.4767 49.8019 71.4146 49.6575 73.314 49.8404C76.0715 50.1004 75.8883 48.2805 75.6376 46.6339C75.4062 45.0837 76.997 42.4549 73.4683 42.5319C69.872 42.609 66.2661 42.5416 62.6698 42.5512C61.7539 42.5512 60.8572 42.349 60.5197 43.7741C59.4592 48.1939 60.5969 49.8019 65.0416 49.8019C65.8804 49.8019 66.7192 49.8019 67.558 49.8019Z" fill="white"/>
<path d="M97.3117 53.4321C94.9109 53.4321 92.5005 53.4514 90.0998 53.4225C89.155 53.4129 87.9787 53.644 87.3713 52.8063C84.7874 49.2435 86.0793 45.1511 86.33 41.3476C86.5132 38.584 89.3189 38.8247 91.5171 38.844C95.8461 38.8825 100.175 38.9307 104.504 38.8344C107.426 38.767 108.679 40.0958 108.65 42.9364C108.544 54.7995 109.865 53.384 98.7482 53.4418C98.2758 53.4418 97.7937 53.4321 97.3117 53.4321ZM97.5623 49.7923C99.2399 49.7923 100.927 49.6768 102.595 49.8212C106.124 50.1197 104.774 47.5199 104.899 45.9407C105.034 44.2459 105.536 42.2335 102.431 42.4934C99.211 42.7534 95.9426 42.7149 92.7223 42.5031C90.2637 42.3394 89.8684 43.283 89.6949 45.5362C89.4249 48.9739 90.418 50.4279 93.9661 49.8405C95.1423 49.6383 96.3668 49.802 97.5623 49.7923Z" fill="white"/>
<path d="M38.5853 53.4225C36.0592 53.4225 33.5332 53.4032 31.0167 53.4225C28.6353 53.4417 27.4494 52.2959 27.4494 49.9271C27.4494 47.4043 27.4205 44.8814 27.459 42.3682C27.4976 40.038 28.7221 38.8536 31.0746 38.8632C36.2424 38.8728 41.4102 38.8536 46.5781 38.8825C48.7571 38.8921 49.8658 40.0669 49.8947 42.243C49.8947 42.3586 49.9044 42.4838 49.9044 42.5993C49.7694 55.2039 51.5724 53.278 38.5853 53.4225ZM38.3828 49.8116C40.0604 49.8116 41.7573 49.6286 43.406 49.8501C46.3852 50.2545 46.4142 48.5116 46.231 46.4221C46.0767 44.5829 47.0698 42.166 43.5024 42.4838C40.5329 42.7534 37.5151 42.7245 34.5359 42.4838C31.7688 42.2623 30.9396 43.0808 30.93 45.9599C30.9203 48.9834 31.5084 50.4375 34.8058 49.8501C35.9628 49.6382 37.1873 49.8116 38.3828 49.8116Z" fill="white"/>
</g>
<defs>
<clipPath id="clip0_124_20765">
<rect width="135" height="148" fill="white"/>
</clipPath>
</defs>
</svg>
