<svg width="80" height="81" viewBox="0 0 80 81" fill="none" xmlns="http://www.w3.org/2000/svg">
<path d="M31.168 81C14.9568 81.0198 2.07158 69.2629 0.225222 54.1299C-1.86338 36.9858 10.8516 21.9583 26.8664 20.2571C27.4426 20.1977 28.2675 20.4944 28.2872 19.4065C28.3003 18.2525 27.4229 18.4569 26.742 18.3053C19.0489 16.5909 13.6146 10.663 12.9533 3.26461C12.6914 0.330331 13.2807 -0.29609 16.2466 0.112731C22.0345 0.910592 26.5194 3.77234 29.2955 9.01448C30.1466 10.6234 30.7097 10.7091 31.7704 9.27165C32.7525 7.94627 34.0816 6.95719 35.4369 6.02745C36.2357 5.48016 37.0607 5.07134 37.7874 6.06702C38.5404 7.10226 38.1148 7.90012 37.1589 8.53972C34.2584 10.4849 32.2418 13.017 31.5216 16.5645C30.8865 19.6834 31.024 19.868 34.0947 20.356C45.0484 22.1099 53.082 27.9192 57.7307 38.1331C58.4443 39.7025 59.2235 40.0915 60.7948 40.0651C66.275 39.9728 71.7551 40.1047 77.2352 39.9926C79.4286 39.9464 80.0375 40.7904 79.9982 42.9071C79.756 57.3477 69.0707 71.0564 55.0593 74.7688C53.3243 75.2303 51.6023 75.7183 49.7822 75.7908C47.6412 75.8699 45.6901 76.4898 43.7913 77.5844C39.5814 80.0109 34.9393 80.8483 31.168 81ZM55.1903 40.197C49.5989 25.8553 32.687 19.2812 18.7281 25.7564C4.63815 32.2909 -1.09735 49.8043 6.34045 63.5921C13.6669 77.1821 30.3038 81.1912 39.9415 75.8963C38.5796 75.5402 37.2702 75.2237 35.9738 74.8611C22.1851 70.9773 11.8468 57.4598 11.526 43.1247C11.4736 40.7443 12.3444 40.0651 14.5116 40.1838C16.6329 40.3025 18.7608 40.2036 20.8887 40.2036C32.2549 40.197 43.6146 40.197 55.1903 40.197ZM17.4317 43.3093C14.3282 42.9598 14.1384 43.1576 14.6032 46.1579C16.6787 59.5369 26.8337 70.1398 39.948 72.6191C52.8005 75.0523 66.0458 68.9661 72.8158 57.4994C75.1859 53.4903 76.5412 49.1383 77.2025 44.5292C77.4186 43.0324 76.6001 43.0126 75.6639 43.1511C75.1139 43.2302 73.8568 42.5906 74.1645 43.9423C75.343 49.1911 72.6586 53.299 70.3605 57.5257C69.182 59.6951 66.3535 59.6556 65.0833 60.9875C63.8066 62.3261 63.8393 65.0428 61.7442 66.3352C58.7324 68.2012 55.5439 69.586 52.0803 70.3574C50.1357 70.7926 48.3483 70.6344 46.7442 69.3684C46.2269 68.9529 45.821 68.5309 45.1008 69.1771C42.9205 71.1223 40.4391 70.7333 37.938 69.9486C34.5727 68.8936 30.474 68.043 28.8896 65.0362C27.1283 61.7128 23.8481 60.6315 21.8904 58.0994C18.6233 53.8793 16.3514 49.013 17.4317 43.3093ZM26.6569 57.4334C27.4164 57.4136 28.0973 57.2224 28.6604 56.6619C31.7769 53.5232 34.8738 50.3714 38.0231 47.2722C38.7368 46.5733 38.5469 46.0128 38.1017 45.36C37.5648 44.5621 37.8725 43.1115 36.2815 43.1313C31.7966 43.1708 27.2986 43.0653 22.8202 43.2368C20.9476 43.3093 19.7364 44.7402 20.0768 46.6128C20.6857 50.0153 21.9559 53.2199 23.9528 56.0883C24.6207 57.051 25.5111 57.4928 26.6569 57.4334ZM61.8228 43.1445C61.8228 43.1379 61.8228 43.1379 61.8228 43.1313C59.6163 43.1313 57.4098 43.184 55.2099 43.1049C54.11 43.0653 53.835 43.6258 53.6582 44.5292C53.4814 45.4655 52.2505 46.2106 53.4291 47.358C56.5325 50.3845 59.5181 53.543 62.6412 56.5498C64.1798 58.0335 66.3208 57.7697 67.4928 55.996C69.2671 53.3122 70.5307 50.378 71.1265 47.1931C71.6176 44.5687 70.5962 43.2566 67.9445 43.1511C65.9083 43.0785 63.8655 43.1445 61.8228 43.1445ZM44.4395 57.7895C44.4395 55.7388 44.3609 53.6815 44.4723 51.6374C44.5377 50.4241 44.0794 49.8438 42.9795 49.5867C41.9712 49.3559 41.12 48.3207 39.948 49.5801C37.0541 52.6924 33.9637 55.6201 31.0305 58.6929C29.433 60.3677 29.6032 62.1678 31.4758 63.4866C34.1667 65.3857 37.1523 66.6781 40.3998 67.2385C42.9336 67.6803 44.3217 66.5264 44.4133 63.9416C44.4919 61.8909 44.433 59.8402 44.4395 57.7895ZM50.2405 67.4298C53.9987 66.8165 57.4229 65.5109 60.3562 63.2163C61.9537 61.97 61.993 60.2952 60.4544 58.7588C57.4491 55.752 54.4766 52.7122 51.4583 49.7252C50.4042 48.6767 47.3335 49.5801 47.3073 51.011C47.2353 55.686 47.2876 60.3611 47.4317 65.0296C47.4906 66.7044 48.7673 67.344 50.2405 67.4298ZM17.4972 3.43605C16.1091 3.30417 16.1091 3.30418 16.3252 4.66911C17.0978 9.48265 22.0345 14.3885 26.8664 15.1402C27.5473 15.2457 28.3658 15.6348 28.2741 14.2764C27.9467 9.72662 22.172 3.89103 17.4972 3.43605ZM45.8014 43.1181V43.1247C44.577 43.1247 43.3461 43.1774 42.1218 43.1115C40.8254 43.039 40.426 43.4214 41.1658 44.6149C42.2724 46.3821 43.9288 47.1535 45.9258 47.1272C47.9489 47.1008 49.5006 46.1645 50.5417 44.3709C51.1702 43.2961 50.6792 43.0983 49.7167 43.1181C48.4138 43.1379 47.1108 43.1181 45.8014 43.1181Z" fill="white"/>
</svg>
