<svg width="44" height="48" viewBox="0 0 44 48" fill="none" xmlns="http://www.w3.org/2000/svg">
<g clip-path="url(#clip0_98_6731)">
<path d="M38.3971 17.6448C38.3971 19.5966 38.4222 21.5485 38.3845 23.4972C38.3719 24.153 38.4788 24.559 39.211 24.7651C40.072 25.0056 40.8607 25.4865 41.7186 25.7395C42.7839 26.0518 43.0133 26.5702 42.6645 27.632C41.0273 32.6194 39.4655 37.6286 37.8754 42.6316C37.7623 42.9845 37.4324 43.3999 37.778 43.6809C38.0797 43.9276 38.5134 43.7122 38.8842 43.5529C40.028 43.0626 41.0147 42.2287 42.2937 42.0226C42.7933 41.9414 43.3778 41.6978 43.5601 42.3943C43.7486 43.1094 43.0887 43.0626 42.6582 43.1563C41.6809 43.3686 40.8324 43.8621 39.9966 44.3617C38.6485 45.1675 37.2972 45.2299 36.0308 44.3211C34.3528 43.1157 32.725 43.1937 30.9936 44.1681C29.0076 45.2861 27.0027 45.1924 25.111 43.9526C23.3355 42.7846 21.6386 42.8065 19.8537 43.9245C17.9054 45.1425 15.8692 45.1862 13.8643 44.0338C11.96 42.9408 10.1186 42.922 8.23625 44.1119C6.42308 45.258 4.62562 45.13 2.86273 43.9183C2.19026 43.4561 1.45179 43.0813 0.625337 42.9252C0.25139 42.8533 -0.0817051 42.6535 0.0219944 42.2194C0.131979 41.7634 0.49964 41.6479 0.945862 41.7509C1.71889 41.9289 2.41651 42.2787 3.10784 42.6504C3.65776 42.947 4.2014 43.2531 4.76389 43.5248C5.31695 43.7934 5.94229 43.9276 6.44193 43.5341C6.973 43.1157 6.4765 42.6097 6.33823 42.1725C4.80788 37.3163 3.27753 32.457 1.70318 27.6133C1.39208 26.6576 1.51464 26.1174 2.5642 25.7801C3.70804 25.4147 5.13469 25.143 5.81345 24.3217C6.51421 23.4753 6.01457 21.9982 6.02714 20.7958C6.05542 17.829 6.02714 14.8653 6.03971 11.8985C6.04913 9.80923 6.7876 9.09095 8.88044 9.08158C9.82317 9.07846 10.7659 9.05035 11.7086 9.09095C12.3025 9.11906 12.5068 8.96291 12.5319 8.32582C12.6576 4.93428 12.6796 4.94365 16.0828 4.93428C17.255 4.93116 18.7759 5.31216 19.5081 4.73129C20.2748 4.12231 19.7312 2.54521 19.7343 1.39596C19.7375 0.377871 20.168 -0.0281147 21.1515 0.00936092C21.8586 0.0343447 22.5656 0.0405906 23.2727 0.00936092C24.3002 -0.0374836 24.6899 0.474683 24.6616 1.43656C24.6396 2.2173 24.7088 3.00116 24.6428 3.77566C24.5673 4.64697 24.7873 5.02797 25.7709 4.95926C27.1001 4.86557 28.4388 4.92179 29.7743 4.9374C31.3047 4.95614 31.8106 5.47455 31.8232 6.98607C31.842 9.08158 31.842 9.08158 33.9946 9.07846C34.5822 9.07846 35.173 9.07221 35.7606 9.08158C37.4544 9.10969 38.3782 9.99973 38.3971 11.6799C38.4159 13.6661 38.3971 15.6554 38.3971 17.6448ZM22.2388 24.9213C21.8932 25.0275 21.6292 25.0993 21.3747 25.193C16.4505 26.9793 11.5295 28.7656 6.60848 30.5551C5.83859 30.8362 4.72932 30.9299 4.40565 31.4795C4.03799 32.1072 4.73875 33.0472 4.98071 33.8467C5.8166 36.6012 6.69018 39.3431 7.59206 42.0757C7.68633 42.3568 7.63919 43.1313 8.36509 42.7034C10.5302 41.4261 12.5885 41.9664 14.5996 43.0563C16.1111 43.8777 17.6006 43.9089 19.0367 42.9751C21.4155 41.4324 23.7377 41.5417 26.06 43.0719C27.3578 43.9276 28.7028 43.9276 30.0791 43.2656C30.5725 43.0282 31.0753 42.8127 31.5749 42.591C32.9481 41.9852 34.312 41.9008 35.6066 42.7721C36.3922 43.2999 36.5588 42.8377 36.7536 42.2038C37.7623 38.934 38.7396 35.6549 39.852 32.4195C40.1568 31.5295 39.9243 31.3202 39.1607 31.0485C34.3779 29.3403 29.6078 27.5883 24.8344 25.855C23.9546 25.5302 23.0716 25.218 22.2388 24.9213ZM7.24953 23.7595C7.71147 23.8376 8.00685 23.6127 8.32424 23.4847C12.6419 21.7577 16.9627 20.0401 21.2678 18.2787C21.9403 18.0039 22.4934 18.0164 23.1564 18.2881C27.4961 20.0651 31.8609 21.7764 36.1943 23.5659C37.0836 23.9344 37.2093 23.722 37.1998 22.8601C37.159 19.2718 37.1841 15.6804 37.181 12.089C37.181 10.5587 36.873 10.2527 35.327 10.2527C28.9667 10.2496 22.6033 10.2527 16.2431 10.2527C13.7292 10.2527 11.2184 10.2589 8.70447 10.2464C7.90001 10.2433 7.25896 10.4526 7.25582 11.377C7.24011 15.5086 7.24953 19.6372 7.24953 23.7595ZM40.2323 30.1585C40.5842 30.2459 40.625 29.9274 40.7099 29.6807C40.9204 29.053 41.0776 28.4065 41.3258 27.7975C41.5709 27.1948 41.4264 26.92 40.8042 26.6733C34.8116 24.2904 28.8316 21.8826 22.8547 19.4623C22.3834 19.2718 21.9937 19.2843 21.5255 19.4748C16.0231 21.7046 10.5082 23.9063 4.99957 26.1267C2.76217 27.0293 2.79988 27.0355 3.51635 29.3153C3.75203 30.0648 4.00971 30.2553 4.79217 29.9649C10.2505 27.9443 15.734 25.9768 21.1955 23.9625C21.9057 23.7002 22.5091 23.7096 23.2161 23.975C27.5369 25.5865 31.8734 27.1542 36.2068 28.7313C37.5298 29.2122 38.859 29.6713 40.2323 30.1585ZM22.1634 9.07846C24.316 9.07846 26.4716 9.07846 28.6242 9.07846C30.7736 9.07846 30.7485 9.08158 30.6259 6.92673C30.5913 6.30214 30.3305 6.12101 29.7649 6.12101C24.715 6.12725 19.662 6.12725 14.6122 6.11476C13.9554 6.11164 13.6789 6.38021 13.7229 7.02667C13.7449 7.37644 13.7669 7.73246 13.7166 8.07598C13.5941 8.91919 13.9649 9.11281 14.7662 9.09719C17.2267 9.04723 19.6966 9.07846 22.1634 9.07846ZM20.9473 3.11671C20.9441 5.03734 20.9441 5.01235 22.6568 4.94989C23.1941 4.93116 23.4424 4.80936 23.4047 4.23161C23.3638 3.61326 23.3418 2.98555 23.4078 2.37032C23.5084 1.45842 23.1815 1.20858 22.2514 1.18047C21.161 1.14612 20.7619 1.4834 20.941 2.53272C20.9724 2.72322 20.9473 2.91997 20.9473 3.11671Z" fill="#253D47"/>
<path d="M28.3854 47.9781C27.2352 47.9969 26.2328 47.4909 25.3184 46.9163C23.6372 45.8639 22.0188 45.8358 20.3659 46.8851C18.2857 48.2061 16.1551 48.2592 14.0465 47.0256C12.1925 45.9419 10.4233 46.0106 8.63532 47.1318C6.76558 48.3029 4.94299 48.1811 3.14867 46.9382C2.53904 46.5166 1.86971 46.1887 1.13753 46.0075C0.710162 45.9013 0.219947 45.7764 0.43363 45.1831C0.62846 44.6428 1.07468 44.7958 1.51776 44.8833C2.42592 45.0675 3.21152 45.5172 3.94999 46.0106C5.26351 46.8913 6.5739 46.9975 7.89999 46.1449C10.2159 44.6553 12.5099 44.6803 14.8636 46.0606C16.4159 46.9694 17.9903 46.9257 19.5238 45.9513C21.7297 44.5491 23.9326 44.5491 26.1291 45.9888C27.65 46.985 29.2307 47.0194 30.7893 46.1262C32.945 44.8895 35.0127 44.9332 37.0521 46.3573C37.9226 46.9663 38.7836 46.882 39.6917 46.376C40.6785 45.8295 41.6463 45.2049 42.7933 45.0175C43.2521 44.9426 43.8209 44.8021 43.9748 45.4267C44.1445 46.1106 43.5538 46.1481 43.0918 46.2074C42.1271 46.3323 41.3289 46.8351 40.5276 47.3129C39.0758 48.1811 37.6209 48.2842 36.2319 47.2911C34.6733 46.1793 33.1492 46.2511 31.5215 47.1037C30.5505 47.6127 29.5292 48.0312 28.3854 47.9781Z" fill="#253D47"/>
<path d="M22.198 17.3294C21.3747 17.3294 20.5514 17.3137 19.728 17.3325C18.8796 17.3512 18.5214 16.939 18.5276 16.1208C18.5528 12.1483 18.1317 12.6137 21.8963 12.6012C22.7196 12.5981 23.5429 12.5918 24.3662 12.6012C25.6829 12.6168 25.8809 12.8666 25.8872 14.475C25.8966 17.1982 25.8463 17.3012 24.4322 17.3262C23.6875 17.3418 22.9427 17.3294 22.198 17.3294ZM22.0189 16.152C22.6442 16.152 23.2758 16.1051 23.8949 16.1645C24.7936 16.2488 24.7339 15.6586 24.6522 15.1245C24.5768 14.6217 25.0953 13.7692 23.9452 13.7942C22.773 13.8191 21.5978 13.7973 20.4257 13.8004C20.1271 13.8004 19.8349 13.7348 19.7249 14.197C19.3792 15.6305 19.75 16.152 21.1987 16.152C21.4721 16.152 21.7455 16.152 22.0189 16.152Z" fill="#243C47"/>
<path d="M31.7163 17.3293C30.9339 17.3293 30.1483 17.3356 29.3658 17.3262C29.0579 17.3231 28.6745 17.398 28.4765 17.1263C27.6344 15.9708 28.0554 14.6436 28.1371 13.41C28.1968 12.5137 29.1113 12.5918 29.8278 12.598C31.2387 12.6105 32.6496 12.6261 34.0606 12.5949C35.0127 12.573 35.4212 13.004 35.4118 13.9253C35.3772 17.7728 35.8078 17.3137 32.1846 17.3324C32.0306 17.3324 31.8735 17.3293 31.7163 17.3293ZM31.798 16.1488C32.3448 16.1488 32.8947 16.1114 33.4384 16.1582C34.5885 16.255 34.1486 15.4118 34.1894 14.8997C34.2334 14.35 34.3968 13.6973 33.385 13.7816C32.3354 13.8659 31.2701 13.8535 30.2206 13.7848C29.4192 13.7317 29.2904 14.0377 29.2338 14.7685C29.1459 15.8834 29.4695 16.355 30.6259 16.1645C31.0093 16.0989 31.4084 16.152 31.798 16.1488Z" fill="#243C47"/>
<path d="M12.5759 17.3262C11.7526 17.3262 10.9293 17.3199 10.1091 17.3262C9.33296 17.3324 8.94645 16.9608 8.94645 16.1926C8.94645 15.3743 8.93702 14.5561 8.94959 13.741C8.96216 12.9853 9.36125 12.6011 10.128 12.6043C11.8123 12.6074 13.4967 12.6011 15.181 12.6105C15.8912 12.6136 16.2525 12.9946 16.262 13.7004C16.262 13.7379 16.2651 13.7785 16.2651 13.816C16.2211 17.9039 16.8088 17.2793 12.5759 17.3262ZM12.5099 16.1551C13.0567 16.1551 13.6098 16.0957 14.1471 16.1676C15.1181 16.2987 15.1276 15.7335 15.0679 15.0558C15.0176 14.4593 15.3412 13.6754 14.1786 13.7785C13.2107 13.8659 12.2271 13.8566 11.2561 13.7785C10.3542 13.7067 10.084 13.9721 10.0809 14.9059C10.0777 15.8865 10.2694 16.3581 11.3441 16.1676C11.7212 16.0989 12.1203 16.1551 12.5099 16.1551Z" fill="#1F3843"/>
</g>
<defs>
<clipPath id="clip0_98_6731">
<rect width="44" height="48" fill="white"/>
</clipPath>
</defs>
</svg>
