<svg width="201" height="70" viewBox="0 0 201 70" fill="none" xmlns="http://www.w3.org/2000/svg">
<g clip-path="url(#clip0_366_6803)">
<path d="M123.243 40.4535C116.601 40.4616 111.322 35.6444 110.566 29.4438C109.71 22.4192 114.919 16.2619 121.48 15.5649C121.716 15.5405 122.054 15.6621 122.062 15.2163C122.068 14.7435 121.708 14.8273 121.429 14.7651C118.278 14.0627 116.051 11.6338 115.78 8.60242C115.673 7.40013 115.914 7.14346 117.13 7.31097C119.501 7.63789 121.338 8.81045 122.476 10.9584C122.824 11.6176 123.055 11.6527 123.489 11.0637C123.892 10.5207 124.436 10.1154 124.992 9.73445C125.319 9.51021 125.657 9.3427 125.955 9.75067C126.263 10.1748 126.089 10.5018 125.697 10.7638C124.509 11.5608 123.683 12.5983 123.388 14.0519C123.127 15.3298 123.184 15.4055 124.442 15.6054C128.929 16.3241 132.221 18.7043 134.125 22.8893C134.418 23.5324 134.737 23.6918 135.381 23.681C137.626 23.6431 139.871 23.6972 142.116 23.6512C143.015 23.6323 143.264 23.9782 143.248 24.8454C143.149 30.7623 138.771 36.3792 133.031 37.9003C132.32 38.0895 131.614 38.2894 130.869 38.3191C129.992 38.3515 129.192 38.6055 128.414 39.054C126.69 40.0482 124.788 40.3914 123.243 40.4535ZM133.084 23.735C130.794 17.8587 123.865 15.165 118.146 17.8181C112.374 20.4956 110.024 27.6715 113.071 33.3209C116.073 38.8892 122.889 40.5319 126.837 38.3623C126.279 38.2164 125.743 38.0868 125.212 37.9382C119.562 36.3468 115.327 30.8082 115.196 24.9346C115.174 23.9592 115.531 23.681 116.419 23.7296C117.288 23.7782 118.16 23.7377 119.031 23.7377C123.688 23.735 128.342 23.735 133.084 23.735ZM117.615 25.0102C116.344 24.867 116.266 24.9481 116.456 26.1774C117.307 31.6593 121.467 36.0037 126.84 37.0196C132.105 38.0165 137.532 35.5228 140.305 30.8244C141.276 29.1817 141.832 27.3986 142.103 25.5101C142.191 24.8968 141.856 24.8886 141.472 24.9454C141.247 24.9778 140.732 24.7157 140.858 25.2696C141.341 27.4202 140.241 29.1034 139.3 30.8352C138.817 31.7241 137.658 31.7079 137.138 32.2537C136.614 32.8021 136.628 33.9152 135.769 34.4448C134.536 35.2094 133.229 35.7768 131.81 36.0929C131.014 36.2712 130.281 36.2063 129.624 35.6876C129.412 35.5174 129.246 35.3445 128.951 35.6092C128.058 36.4063 127.041 36.2469 126.016 35.9254C124.638 35.4931 122.958 35.1445 122.309 33.9125C121.588 32.5508 120.244 32.1078 119.442 31.0703C118.103 29.3412 117.172 27.3473 117.615 25.0102ZM121.395 30.7974C121.706 30.7893 121.985 30.7109 122.215 30.4813C123.492 29.1953 124.761 27.9038 126.051 26.634C126.344 26.3476 126.266 26.118 126.083 25.8505C125.863 25.5236 125.989 24.9292 125.338 24.9373C123.5 24.9535 121.657 24.9103 119.823 24.9805C119.055 25.0102 118.559 25.5965 118.699 26.3638C118.948 27.7579 119.469 29.071 120.287 30.2462C120.56 30.6407 120.925 30.8217 121.395 30.7974ZM135.802 24.9427C135.802 24.94 135.802 24.94 135.802 24.9373C134.898 24.9373 133.994 24.9589 133.092 24.9265C132.642 24.9103 132.529 25.1399 132.457 25.5101C132.384 25.8937 131.88 26.199 132.363 26.6691C133.634 27.9092 134.857 29.2034 136.137 30.4354C136.767 31.0433 137.644 30.9352 138.125 30.2084C138.852 29.1088 139.369 27.9065 139.613 26.6016C139.815 25.5263 139.396 24.9886 138.31 24.9454C137.475 24.9157 136.639 24.9427 135.802 24.9427ZM128.68 30.9433C128.68 30.1031 128.648 29.2601 128.693 28.4226C128.72 27.9254 128.532 27.6877 128.082 27.5823C127.669 27.4877 127.32 27.0636 126.84 27.5796C125.654 28.8548 124.388 30.0544 123.186 31.3134C122.532 31.9997 122.602 32.7373 123.369 33.2776C124.471 34.0557 125.694 34.5853 127.025 34.8149C128.063 34.9959 128.632 34.5231 128.669 33.464C128.701 32.6238 128.677 31.7835 128.68 30.9433ZM131.057 34.8933C132.596 34.642 133.999 34.1071 135.201 33.1669C135.855 32.6562 135.871 31.97 135.241 31.3405C134.01 30.1085 132.792 28.8629 131.555 27.639C131.124 27.2095 129.866 27.5796 129.855 28.1659C129.825 30.0814 129.847 31.997 129.906 33.9098C129.93 34.5961 130.453 34.8582 131.057 34.8933ZM117.642 8.67266C117.073 8.61863 117.073 8.61863 117.162 9.17789C117.478 11.1502 119.501 13.1603 121.48 13.4683C121.759 13.5115 122.095 13.6709 122.057 13.1144C121.923 11.2501 119.557 8.85908 117.642 8.67266ZM129.238 24.9319V24.9346C128.736 24.9346 128.232 24.9562 127.73 24.9292C127.199 24.8995 127.036 25.0562 127.339 25.5452C127.792 26.2692 128.471 26.5854 129.289 26.5745C130.118 26.5637 130.753 26.1801 131.18 25.4452C131.437 25.0048 131.236 24.9238 130.842 24.9319C130.308 24.94 129.774 24.9319 129.238 24.9319Z" fill="white"/>
<path d="M75.1983 17.4885C75.1983 19.1771 75.2198 20.8657 75.1876 22.5516C75.1768 23.119 75.268 23.4702 75.893 23.6485C76.628 23.8566 77.3013 24.2726 78.0336 24.4915C78.9429 24.7617 79.1387 25.2102 78.841 26.1288C77.4435 30.4435 76.1103 34.7771 74.753 39.1053C74.6565 39.4106 74.3748 39.77 74.6699 40.0131C74.9274 40.2266 75.2976 40.0401 75.6141 39.9024C76.5905 39.4782 77.4327 38.7568 78.5245 38.5785C78.951 38.5082 79.4499 38.2975 79.6055 38.9C79.7664 39.5187 79.2031 39.4782 78.8356 39.5592C78.0014 39.7429 77.2772 40.1698 76.5636 40.6021C75.4129 41.2992 74.2595 41.3532 73.1785 40.567C71.7461 39.5241 70.3566 39.5916 68.8786 40.4346C67.1833 41.4018 65.4719 41.3208 63.8571 40.2482C62.3416 39.2377 60.8931 39.2566 59.3695 40.2239C57.7064 41.2775 55.9682 41.3154 54.2568 40.3184C52.6313 39.3728 51.0594 39.3566 49.4527 40.386C47.9049 41.3775 46.3706 41.2667 44.8658 40.2185C44.2917 39.8186 43.6614 39.4944 42.9559 39.3593C42.6367 39.2972 42.3524 39.1242 42.4409 38.7487C42.5348 38.3542 42.8486 38.2543 43.2295 38.3434C43.8894 38.4974 44.4849 38.8 45.075 39.1215C45.5444 39.3782 46.0085 39.643 46.4886 39.878C46.9607 40.1104 47.4945 40.2266 47.921 39.8861C48.3743 39.5241 47.9505 39.0864 47.8325 38.7082C46.5262 34.5069 45.2198 30.303 43.876 26.1125C43.6104 25.2858 43.715 24.8184 44.6109 24.5266C45.5873 24.2105 46.8051 23.9755 47.3845 23.2649C47.9827 22.5327 47.5562 21.2548 47.5669 20.2146C47.5911 17.6479 47.5669 15.0839 47.5777 12.5173C47.5857 10.7098 48.2161 10.0884 50.0026 10.0803C50.8073 10.0776 51.612 10.0533 52.4167 10.0884C52.9237 10.1127 53.098 9.97761 53.1195 9.42645C53.2268 6.49234 53.2456 6.50044 56.1506 6.49234C57.1511 6.48964 58.4494 6.81925 59.0744 6.31672C59.7289 5.78988 59.2649 4.42549 59.2675 3.43124C59.2702 2.55047 59.6377 2.19924 60.4773 2.23166C61.0809 2.25327 61.6844 2.25867 62.2879 2.23166C63.1651 2.19113 63.4977 2.63422 63.4735 3.46636C63.4548 4.1418 63.5138 4.81995 63.4575 5.48998C63.3931 6.24378 63.5808 6.57339 64.4204 6.51395C65.5551 6.4329 66.6978 6.48153 67.8378 6.49504C69.1441 6.51125 69.576 6.95974 69.5867 8.2674C69.6028 10.0803 69.6028 10.0803 71.4403 10.0776C71.9419 10.0776 72.4462 10.0722 72.9478 10.0803C74.3936 10.1046 75.1822 10.8746 75.1983 12.3281C75.2144 14.0438 75.1983 15.7648 75.1983 17.4885ZM61.4054 23.7836C61.1104 23.8755 60.885 23.9376 60.6678 24.0187C56.4644 25.5641 52.2638 27.1095 48.0632 28.6576C47.406 28.9008 46.4591 28.9818 46.1828 29.4573C45.869 30.0004 46.4672 30.8136 46.6737 31.5053C47.3872 33.8882 48.1329 36.2604 48.9028 38.6244C48.9832 38.8676 48.943 39.5376 49.5626 39.1675C51.4108 38.0624 53.1678 38.5299 54.8845 39.4728C56.1747 40.1833 57.4462 40.2104 58.6721 39.4025C60.7026 38.0679 62.6849 38.1624 64.6672 39.4863C65.775 40.2266 66.9231 40.2266 68.098 39.6538C68.5191 39.4485 68.9483 39.262 69.3748 39.0702C70.547 38.5461 71.7112 38.4731 72.8163 39.2269C73.4869 39.6835 73.6291 39.2836 73.7954 38.7352C74.6565 35.9064 75.4907 33.0696 76.4403 30.2706C76.7004 29.5006 76.5019 29.3195 75.8501 29.0845C71.7675 27.6066 67.6956 26.0909 63.6211 24.5915C62.87 24.3105 62.1163 24.0403 61.4054 23.7836ZM48.6104 22.7786C49.0047 22.8461 49.2568 22.6516 49.5278 22.5408C53.2134 21.0467 56.9017 19.5608 60.5766 18.037C61.1506 17.7992 61.6227 17.81 62.1887 18.0451C65.8931 19.5824 69.6189 21.063 73.3179 22.6111C74.0771 22.9299 74.1844 22.7461 74.1763 22.0005C74.1414 18.8961 74.1629 15.7891 74.1602 12.6821C74.1602 11.3582 73.8973 11.0934 72.5776 11.0934C67.1484 11.0907 61.7166 11.0934 56.2874 11.0934C54.1415 11.0934 51.9983 11.0988 49.8523 11.088C49.1656 11.0853 48.6184 11.2664 48.6158 12.0661C48.6023 15.6378 48.6104 19.2122 48.6104 22.7786ZM76.7648 28.3145C77.0652 28.3901 77.1001 28.1146 77.1725 27.9011C77.3523 27.3581 77.4864 26.7988 77.6983 26.2719C77.9075 25.7505 77.7841 25.5128 77.253 25.2993C72.1377 23.2379 67.0331 21.1548 61.9312 19.0609C61.5288 18.8961 61.1962 18.9069 60.7965 19.0718C56.097 21.0008 51.3894 22.9056 46.6898 24.8292C44.7799 25.61 44.8121 25.6154 45.4237 27.5877C45.6249 28.2361 45.8448 28.4009 46.5128 28.1497C51.1721 26.4016 55.8529 24.6995 60.5149 22.9569C61.1211 22.7299 61.6361 22.738 62.2396 22.9677C65.9279 24.3618 69.6296 25.7181 73.3287 27.0825C74.458 27.4958 75.5926 27.893 76.7648 28.3145ZM61.341 10.0776C63.1785 10.0776 65.0186 10.0776 66.8561 10.0776C68.6908 10.0776 68.6693 10.0803 68.5647 8.21606C68.5352 7.67571 68.3126 7.51901 67.8298 7.51901C63.5191 7.52441 59.2059 7.52441 54.8952 7.51361C54.3346 7.5109 54.0986 7.74326 54.1361 8.30252C54.1549 8.60512 54.1737 8.91312 54.1308 9.21031C54.0261 9.93979 54.3427 10.1073 55.0267 10.0938C57.127 10.0506 59.2354 10.0776 61.341 10.0776ZM60.303 4.91721C60.3003 6.57879 60.3003 6.55718 61.7622 6.50315C62.2209 6.48693 62.4328 6.38157 62.4006 5.88174C62.3657 5.34679 62.3469 4.80374 62.4033 4.27149C62.4891 3.48257 62.2101 3.26643 61.4162 3.24212C60.4854 3.2124 60.1447 3.50419 60.2976 4.41198C60.3244 4.57679 60.303 4.7497 60.303 4.91721Z" fill="white"/>
<path d="M99.9488 23.6566C99.9488 16.1484 99.9488 8.64024 99.9488 1.13204C99.9488 0.932109 99.938 0.732178 99.9568 0.532248C99.8763 1.33197 100.399 0.00270197 100.799 2.06808e-07C101.268 -0.00270156 101.553 0.16751 101.615 0.475511C101.652 0.672739 101.66 0.87267 101.66 1.0726C101.66 16.1322 101.66 31.1919 101.652 46.2542C101.652 46.7108 101.92 47.3754 100.799 47.37C99.6805 47.3646 99.9595 46.7027 99.9595 46.2461C99.9461 38.7163 99.9488 31.1865 99.9488 23.6566Z" fill="white"/>
<path d="M173.277 15.2974C173.09 12.6848 171.25 12.2579 169.262 12.031C168.393 11.931 167.524 11.9121 166.657 12.0526C164.723 12.3633 163.406 13.7033 162.972 15.8053C162.62 17.502 163.261 18.9096 164.933 19.9822C166.665 21.0927 168.666 21.5979 170.517 22.4436C171.156 22.7353 171.802 23.019 172.398 23.3865C174.949 24.9562 176.003 27.2527 175.544 30.1517C175.136 32.7292 173.087 34.7474 170.362 35.4309C167.824 36.0685 165.394 35.7173 162.966 34.9176C161.03 34.2773 161.022 34.3016 161.019 32.2185C161.019 31.589 161.019 30.9595 161.019 30.1895C161.225 30.3597 161.341 30.4084 161.349 30.4651C161.604 32.9804 163.374 33.899 165.496 34.2881C167.258 34.6123 169.02 34.5312 170.657 33.5775C173.253 32.0645 174.442 27.6093 170.799 25.3993C168.956 24.2835 166.88 23.6972 164.927 22.8326C163.076 22.0113 161.397 20.9792 160.702 18.9259C159.477 15.3055 161.722 11.6986 165.606 10.907C167.382 10.545 169.13 10.6395 170.879 11.0151C171.174 11.0772 171.464 11.1556 171.759 11.215C173.599 11.5987 173.599 11.596 173.599 13.5304C173.599 14.0897 173.599 14.649 173.599 15.2082C173.492 15.2352 173.385 15.265 173.277 15.2974Z" fill="white"/>
<path d="M156.137 15.2623C155.853 12.3146 153.894 12.2957 151.797 12.3606C149.393 12.4335 149.391 12.3768 149.388 14.7516C149.385 20.7631 149.388 26.7718 149.385 32.7832C149.385 33.845 149.584 34.7879 150.689 35.3499C148.98 35.3499 147.269 35.3499 145.56 35.3499C146.708 34.8176 146.888 33.8288 146.888 32.7427C146.888 26.226 146.88 19.7094 146.901 13.1927C146.904 12.5065 146.676 12.3281 146.03 12.366C145.094 12.42 144.152 12.3741 143.216 12.3795C141.462 12.3876 140.692 13.0387 140.338 14.8057C140.319 14.8921 140.249 14.9705 139.978 15.0515C139.978 13.7844 139.957 12.5146 139.994 11.2501C140.002 10.9286 140.362 11.0367 140.574 11.0367C145.635 11.0313 150.697 11.0313 155.759 11.0367C156.027 11.0367 156.435 10.8989 156.443 11.3825C156.461 12.601 156.448 13.8222 156.448 15.0407C156.343 15.1137 156.242 15.1866 156.137 15.2623Z" fill="white"/>
<path d="M66.6522 43.7281C65.6704 43.7443 64.8147 43.3066 64.0342 42.8094C62.5991 41.899 61.2176 41.8746 59.8067 42.7824C58.031 43.9253 56.2123 43.9712 54.4124 42.904C52.8298 41.9665 51.3196 42.0259 49.7933 42.9959C48.1973 44.009 46.6415 43.9037 45.1099 42.8284C44.5895 42.4636 44.0181 42.1799 43.3931 42.0232C43.0283 41.9314 42.6099 41.8233 42.7923 41.31C42.9586 40.8426 43.3395 40.975 43.7177 41.0506C44.4929 41.21 45.1635 41.5991 45.7939 42.0259C46.9151 42.7878 48.0337 42.8797 49.1656 42.1421C51.1426 40.8534 53.1007 40.875 55.1098 42.0692C56.4349 42.8554 57.7788 42.8176 59.0878 41.9746C60.9709 40.7615 62.8512 40.7615 64.7262 42.007C66.0245 42.8689 67.3737 42.8986 68.7042 42.1259C70.5443 41.056 72.3094 41.0938 74.0502 42.3258C74.7933 42.8527 75.5282 42.7797 76.3034 42.342C77.1457 41.8692 77.9719 41.3289 78.951 41.1668C79.3426 41.1019 79.8281 40.9804 79.9595 41.5207C80.1044 42.1124 79.6001 42.1448 79.2058 42.1961C78.3823 42.3042 77.701 42.7392 77.017 43.1526C75.7777 43.9037 74.5357 43.9928 73.3501 43.1337C72.0197 42.1718 70.7187 42.234 69.3292 42.9716C68.5003 43.4119 67.6286 43.7767 66.6522 43.7281Z" fill="white"/>
<path d="M113.999 69.7812C113.632 69.7812 113.27 69.7812 112.902 69.7812C113.152 68.641 112.993 67.4874 113.039 66.3418C113.055 65.9528 112.822 65.9176 112.527 65.9203C111.623 65.9284 110.719 65.9257 109.815 65.923C109.546 65.9203 109.353 65.9879 109.367 66.3094C109.412 67.4387 109.249 68.5789 109.498 69.7568C109.192 69.7568 108.814 69.7568 108.46 69.7568C108.46 67.2523 108.46 64.7316 108.46 62.1595C108.76 62.1595 109.144 62.1595 109.528 62.1595C109.233 63.1213 109.407 64.1129 109.375 65.0936C109.364 65.407 109.549 65.4854 109.82 65.4773C110.12 65.4691 110.424 65.5016 110.724 65.4745C111.472 65.4124 112.653 65.8258 112.883 65.2989C113.286 64.3857 113.181 63.2186 112.84 62.1433C113.2 62.1433 113.591 62.1433 113.986 62.1433C113.803 63.0484 113.809 68.8572 113.999 69.7812Z" fill="white"/>
<path d="M137.706 62.1027C137.899 62.1027 138.162 62.0973 138.425 62.1054C138.551 62.1082 138.677 62.1325 138.827 62.1514C138.422 63.1294 138.64 64.1021 138.607 65.0585C138.591 65.5043 138.948 65.4745 139.251 65.4745C140.053 65.4772 140.858 65.4637 141.66 65.4827C142.105 65.4935 142.36 65.3692 142.328 64.8613C142.272 63.9697 142.467 63.0619 142.081 62.146C142.532 62.146 142.921 62.146 143.216 62.146C143.084 64.6802 143.127 67.2037 143.192 69.7785C142.907 69.8757 142.521 69.8406 142.111 69.7622C142.5 68.6356 142.264 67.4874 142.325 66.3553C142.341 66.0635 142.21 65.9203 141.915 65.9257C141.749 65.9284 141.58 65.923 141.413 65.923C140.678 65.923 139.935 65.869 139.206 65.9338C137.95 66.0446 138.725 67.0254 138.64 67.5711C138.53 68.2709 138.422 69.0463 138.857 69.7433C138.412 69.8595 138.025 69.8514 137.741 69.7839C137.827 67.2388 137.862 64.737 137.706 62.1027Z" fill="white"/>
<path d="M35.6946 62.1325C36.2687 61.9379 36.6523 62.2162 36.9983 62.7809C38.1007 64.5857 39.2488 66.3607 40.3835 68.1439C40.413 68.1898 40.4881 68.2033 40.5498 68.2357C40.8636 68.1304 40.7697 67.8521 40.7617 67.6495C40.6759 65.9068 40.9199 64.1615 40.6276 62.4162C40.539 61.8893 41.0755 62.1838 41.3384 62.1136C41.0809 63.7481 41.2552 65.3178 41.2096 66.8822C41.1909 67.5549 41.2392 68.233 41.1909 68.9031C41.1694 69.2084 41.4752 69.6731 40.9039 69.8109C40.3754 69.9379 40.2198 69.5083 40.0106 69.176C39.2247 67.925 38.4468 66.6714 37.6635 65.4178C37.2907 64.8234 36.9124 64.2317 36.4242 63.6509C36.2097 65.6853 36.1802 67.7089 36.3599 69.7731C36.1694 69.8541 35.9092 69.8379 35.7724 69.7974C35.8073 67.2361 35.9092 64.7181 35.6946 62.1325Z" fill="white"/>
<path d="M3.99945 62.019C6.2473 62.0055 7.9533 63.6806 7.98013 65.9284C8.00695 68.1412 6.1105 70.0135 3.85997 70C1.71942 69.9865 -0.0107295 68.2195 4.53983e-08 66.0527C0.0107296 63.7697 1.73015 62.0325 3.99945 62.019ZM3.88411 62.4567C2.19152 62.454 0.807401 64.0075 0.812766 65.8987C0.818131 67.7791 2.3927 69.5758 4.01018 69.5542C5.70277 69.5326 7.13249 67.9683 7.1459 66.1176C7.162 64.1669 5.64108 62.4594 3.88411 62.4567Z" fill="white"/>
<path d="M182.996 62.1649C183.733 61.9514 184.101 62.254 184.442 62.8214C185.41 64.4371 186.437 66.0176 187.454 67.6035C187.604 67.8386 187.658 68.1871 188.221 68.2736C188.127 66.2229 188.409 64.2155 188.017 62.1838C188.023 62.1811 188.074 62.1217 188.127 62.1217C188.355 62.1109 188.586 62.1163 188.972 62.1163C188.626 62.4837 188.626 62.8349 188.626 63.1916C188.631 65.1152 188.642 67.0389 188.618 68.9625C188.615 69.2462 188.862 69.6812 188.355 69.8082C187.915 69.919 187.706 69.6245 187.497 69.284C186.491 67.6549 185.469 66.0365 184.447 64.4182C184.275 64.148 184.085 63.8913 183.755 63.4158C183.755 65.6934 183.755 67.7035 183.755 69.765C183.487 69.7406 183.055 70.2405 183.157 69.1868C183.363 67.047 183.221 64.8748 183.205 62.716C183.208 62.5377 183.076 62.3648 182.996 62.1649Z" fill="white"/>
<path d="M14.772 69.7595C14.4206 69.8541 14.0638 69.8352 13.75 69.7785C13.8519 67.2334 13.8492 64.7099 13.758 62.1892C14.5144 62.1892 15.4157 62.1163 16.3009 62.2108C17.1244 62.2973 17.7441 62.7782 17.8379 63.6887C17.9265 64.5397 17.626 65.2854 16.8213 65.5934C16.0756 65.8798 16.2097 66.1797 16.5611 66.6714C17.28 67.6765 17.8594 68.7788 18.7178 69.7325C17.9962 69.9622 17.5697 69.5893 17.2183 69.0706C16.6174 68.179 16.0273 67.2766 15.4265 66.385C15.2816 66.1689 15.1582 65.8609 14.8256 65.9636C14.4635 66.077 14.6271 66.4229 14.6325 66.6552C14.662 67.6846 14.5037 68.7248 14.772 69.7595ZM14.56 64.0102C14.9544 64.4533 13.9806 65.4772 15.2709 65.5097C16.3304 65.5367 17.0144 64.9504 17.0386 64.0156C17.06 63.0727 16.3304 62.4405 15.1824 62.5323C14.0933 62.6188 14.8819 63.532 14.56 64.0102Z" fill="white"/>
<path d="M200.472 63.3077C199.568 61.8704 196.719 62.3756 195.828 63.8238C194.396 66.1527 195.863 69.2759 198.572 69.5272C199.661 69.6272 200.024 69.3192 199.986 68.2141C199.959 67.4225 200.201 66.5931 199.688 65.8015C200.12 65.8015 200.536 65.8015 201.003 65.8015C200.616 66.8497 200.823 67.9413 200.796 69.0166C200.785 69.5002 200.678 69.7298 200.15 69.8082C199.254 69.9379 198.393 70.0756 197.478 69.8298C195.514 69.3002 194.329 67.7062 194.468 65.6502C194.602 63.6752 196.019 62.2594 198.02 62.0595C198.594 62.0028 199.152 62.0757 199.72 62.1163C200.504 62.1676 200.759 62.5431 200.472 63.3077Z" fill="white"/>
<path d="M53.1034 63.4023C52.2075 61.9055 49.3024 62.3162 48.377 63.8778C46.9768 66.2337 48.5031 69.3651 51.2177 69.5191C51.7112 69.5461 52.4811 69.6299 52.5374 68.9571C52.6259 67.9386 52.7842 66.8714 52.3362 65.842C52.7145 65.6421 53.1463 65.7879 53.6318 65.7555C53.2295 66.6606 53.3448 67.59 53.4065 68.487C53.4709 69.411 53.1946 69.7487 52.2584 69.9027C49.9033 70.2891 47.8996 69.2948 47.2477 67.2442C46.4242 64.6613 48.0149 62.2621 50.7107 62.0622C51.2391 62.0217 51.7837 62.0595 52.3121 62.1244C53.157 62.2297 53.1544 62.254 53.1034 63.4023Z" fill="white"/>
<path d="M63.8544 68.5951C64.0985 69.5272 63.9644 69.9027 63.0658 69.8379C61.9017 69.7541 60.7268 69.8163 59.5519 69.8163C59.7262 67.2604 59.737 64.7397 59.5519 62.1027C60.6892 62.1027 61.9741 62.0919 63.259 62.1082C64.0503 62.119 63.6077 62.7106 63.7659 63.1483C63.2107 62.6404 61.2069 62.3108 60.6946 62.5458C60.539 62.6161 60.5122 62.7242 60.5015 62.8484C60.4854 63.0484 60.488 63.2537 60.4854 63.4563C60.4639 65.5178 60.4639 65.5178 62.5159 65.38C62.6769 65.3692 62.8646 65.2719 62.9129 65.5124C62.9451 65.6691 62.9639 65.8717 62.8915 65.9987C62.7627 66.2229 62.6393 65.9474 62.5052 65.9284C60.5605 65.6556 60.4854 65.715 60.488 67.6495C60.488 69.3867 60.488 69.3921 62.2021 69.3813C62.811 69.3813 63.5084 69.565 63.8544 68.5951Z" fill="white"/>
<path d="M127.194 68.2952C127.797 69.4434 128.696 69.6596 129.772 69.4002C130.469 69.2327 130.863 68.7896 130.981 68.0899C131.11 67.3334 130.692 66.866 130.091 66.5607C129.498 66.2581 128.857 66.0473 128.256 65.7609C127.248 65.2827 126.888 64.6127 127.079 63.5779C127.258 62.608 127.932 62.173 128.844 62.0838C129.305 62.0406 129.774 62.0946 130.241 62.1C130.968 62.1109 131.429 62.3405 131.091 63.1862C130.525 62.2297 129.589 62.3972 128.723 62.5539C128.213 62.6458 127.923 63.1051 127.859 63.6698C127.795 64.2344 127.98 64.6802 128.471 64.9369C129.031 65.2314 129.621 65.461 130.204 65.715C131.569 66.3121 132.068 67.1604 131.762 68.3708C131.502 69.3975 130.177 70.1432 128.94 69.9514C128.677 69.9108 128.42 69.8298 128.16 69.7677C127.167 69.5353 127.167 69.5353 127.194 68.2952Z" fill="white"/>
<path d="M157.58 69.7839C157.137 69.7839 156.775 69.7839 156.491 69.7839C156.612 67.2253 156.649 64.7018 156.467 62.1298C157.207 62.1027 158.036 62.0271 158.86 62.2108C159.715 62.4026 160.343 62.8565 160.442 63.7913C160.541 64.7505 160.059 65.4097 159.208 65.7663C158.642 66.0014 157.583 66.05 157.526 66.3337C157.331 67.3658 157.312 68.4654 157.54 69.5299C157.553 69.5947 157.561 69.6569 157.58 69.7839ZM157.419 64.2047C157.685 64.5803 156.982 65.4313 157.725 65.6529C158.374 65.8447 159.093 65.4718 159.485 64.7856C159.804 64.2263 159.71 63.6779 159.318 63.1997C158.911 62.6998 158.296 62.4134 157.728 62.5701C157.108 62.7404 157.537 63.4239 157.419 63.8643C157.406 63.9264 157.419 63.9967 157.419 64.2047Z" fill="white"/>
<path d="M167.285 69.7866C166.875 69.7866 166.515 69.7866 166.244 69.7866C166.274 67.2361 166.405 64.7181 166.15 62.1541C166.899 62.0865 167.757 62.0352 168.61 62.2351C169.423 62.427 170.016 62.8565 170.12 63.7562C170.228 64.6748 169.798 65.2989 169.026 65.7258C168.91 65.7907 168.787 65.8555 168.661 65.8879C168.162 66.023 167.365 66.0068 167.223 66.3067C166.976 66.8308 167.124 67.5495 167.121 68.1844C167.116 68.7113 167.07 69.2435 167.285 69.7866ZM167.116 64.0858C167.116 64.4911 167.119 64.8937 167.116 65.2989C167.113 65.5772 167.194 65.7555 167.516 65.7096C168.122 65.6232 168.712 65.4881 169.088 64.945C169.471 64.3857 169.452 63.7968 169.063 63.2537C168.656 62.6863 167.996 62.3972 167.392 62.5729C166.813 62.7404 167.226 63.4374 167.116 63.8859C167.1 63.9481 167.113 64.0183 167.116 64.0858Z" fill="white"/>
<path d="M91.3651 68.6869C91.6092 69.665 91.2068 69.8946 90.3297 69.8352C89.2004 69.7568 88.0604 69.8163 86.9418 69.8163C86.9418 67.228 86.9418 64.7072 86.9418 62.1027C88.0148 62.1027 89.2085 62.1325 90.3994 62.0919C91.0915 62.0676 91.2042 62.3594 91.0244 62.9376C90.1205 62.1973 89.0743 62.6188 88.0899 62.5566C87.8619 62.5431 87.8726 62.7674 87.8673 62.9268C87.8565 63.197 87.8243 63.4725 87.8673 63.7346C87.9558 64.3047 87.5239 65.1882 88.0953 65.38C88.8088 65.6204 89.7315 65.7366 90.4692 65.0963C90.5577 65.4826 90.5979 65.8393 90.4531 66.1986C89.7208 65.7015 88.9107 65.9609 88.1382 65.9284C87.8592 65.9176 87.8646 66.1635 87.8619 66.3661C87.8592 66.6363 87.8592 66.9065 87.8619 67.1767C87.8619 69.6028 88.0014 69.7055 90.4155 69.4002C90.9064 69.3381 91.0218 68.9274 91.3651 68.6869Z" fill="white"/>
<path d="M102.497 68.5194C102.929 69.8352 101.883 69.6893 101.167 69.8595C99.1923 70.3296 97.2234 69.3138 96.5072 67.4657C95.9225 65.9582 96.3624 64.0318 97.5265 62.9997C98.5673 62.0757 100.99 61.6975 102.089 62.2892C102.575 62.5512 102.242 63.0024 102.296 63.4617C101.794 62.5512 101.003 62.4405 100.12 62.4702C99.2218 62.5026 98.4949 62.8565 97.9155 63.5104C96.6682 64.918 96.8077 67.1659 98.2052 68.5383C99.5518 69.8622 101.024 69.8514 102.497 68.5194Z" fill="white"/>
<path d="M76.4644 63.1943C76.1532 62.2892 76.4376 62.0568 77.202 62.0946C78.3367 62.146 79.4794 62.1541 80.6167 62.0919C81.408 62.0487 81.7729 62.2621 81.5234 63.2051C81.3946 63.0538 81.2981 62.916 81.1774 62.8052C80.6892 62.3648 80.0749 62.4513 79.5599 62.6053C79.0931 62.7458 79.3238 63.3077 79.3185 63.6779C79.2943 65.2287 79.3104 66.7795 79.2997 68.3303C79.297 68.8031 79.3265 69.2624 79.5304 69.719C79.1173 69.8784 78.7337 69.8298 78.5191 69.792C78.5191 67.5009 78.5432 65.253 78.5057 63.0078C78.4923 62.2135 77.8083 62.6161 77.4166 62.5485C76.9955 62.4756 76.6709 62.7106 76.4644 63.1943Z" fill="white"/>
<path d="M26.3975 63.613C26.5933 63.151 26.6523 62.6323 27.052 62.1217C28.0149 64.7018 28.9565 67.2118 29.9087 69.7622C29.2971 69.8973 28.7231 69.9892 28.7043 68.9355C28.6963 68.5221 28.4307 68.1142 28.2751 67.7062C27.7548 66.331 27.6823 66.2959 26.2553 66.4283C25.9656 66.4553 25.7403 66.4931 25.633 66.8092C25.3621 67.6035 24.9275 68.3762 24.8363 69.1895C24.7585 69.8838 24.5171 69.8973 23.9672 69.7596C24.6807 68.4816 25.0321 67.0713 25.5901 65.7393C25.7027 65.7393 25.8127 65.7393 25.9254 65.7393C26.0273 66.4715 26.5879 66.0257 26.9313 66.1284C27.1861 66.204 27.5053 65.9987 27.4758 65.8312C27.3524 65.1179 27.28 64.3587 26.6577 63.8454C26.5745 63.7697 26.486 63.6914 26.3975 63.613Z" fill="white"/>
<path d="M175.912 62.1325C176.209 62.073 176.628 62.0622 176.92 62.1352C176.767 64.7126 176.853 67.2334 176.856 69.7758C176.63 69.7758 176.241 69.7758 175.912 69.7758C175.912 67.2145 175.912 64.6964 175.912 62.1325Z" fill="white"/>
<path d="M149.283 62.1406C149.629 62.1406 150.024 62.1406 150.332 62.1406C150.12 64.6883 150.225 67.2064 150.254 69.7812C150.026 69.8622 149.664 69.8217 149.283 69.7704C149.283 67.2442 149.283 64.7235 149.283 62.1406Z" fill="white"/>
<path d="M25.928 65.742C25.8154 65.742 25.7054 65.742 25.5927 65.742C25.8368 65.1882 25.9227 64.5641 26.2875 64.0615C26.3572 64.148 26.4243 64.2344 26.494 64.3209C26.3224 64.8018 26.2419 65.3178 25.928 65.742Z" fill="white"/>
<path d="M26.494 64.3209C26.4243 64.2344 26.3572 64.148 26.2875 64.0615C26.325 63.9129 26.3599 63.7643 26.3975 63.6157C26.486 63.6941 26.5718 63.7724 26.6603 63.8508C26.6067 64.0048 26.5504 64.1642 26.494 64.3209Z" fill="white"/>
<path d="M61.3705 17.2156C60.6678 17.2156 59.965 17.2021 59.2622 17.2183C58.5379 17.2346 58.2321 16.8779 58.2375 16.1701C58.259 12.7334 57.8995 13.136 61.113 13.1252C61.8158 13.1225 62.5186 13.1171 63.2214 13.1252C64.3453 13.1387 64.5143 13.3548 64.5197 14.7462C64.5277 17.1022 64.4848 17.1913 63.2777 17.2129C62.642 17.2237 62.0063 17.2156 61.3705 17.2156ZM61.2177 16.1944C61.7514 16.1944 62.2906 16.1538 62.819 16.2052C63.5862 16.2781 63.5352 15.7675 63.4655 15.3055C63.4011 14.8705 63.8437 14.1329 62.862 14.1545C61.8614 14.1762 60.8582 14.1572 59.8577 14.1599C59.6028 14.1599 59.3534 14.1032 59.2595 14.5031C58.9644 15.7432 59.281 16.1944 60.5175 16.1944C60.7509 16.1971 60.9843 16.1971 61.2177 16.1944Z" fill="white"/>
<path d="M69.4955 17.2156C68.8276 17.2156 68.157 17.221 67.4891 17.2129C67.2262 17.2102 66.899 17.2751 66.73 17.04C66.0111 16.0404 66.3705 14.8921 66.4403 13.8249C66.4912 13.0495 67.2718 13.1171 67.8834 13.1225C69.0878 13.1333 70.2922 13.1468 71.4966 13.1198C72.3094 13.1009 72.6581 13.4737 72.65 14.2707C72.6205 17.5993 72.988 17.2021 69.8952 17.2183C69.7638 17.2156 69.6296 17.2156 69.4955 17.2156ZM69.5653 16.1944C70.032 16.1944 70.5014 16.162 70.9655 16.2025C71.9472 16.2862 71.5717 15.5568 71.6066 15.1137C71.6441 14.6382 71.7836 14.0735 70.9199 14.1464C70.024 14.2194 69.1146 14.2086 68.2187 14.1491C67.5347 14.1032 67.4247 14.368 67.3764 15.0002C67.3013 15.9647 67.5776 16.3727 68.5647 16.2079C68.892 16.1511 69.2326 16.1971 69.5653 16.1944Z" fill="white"/>
<path d="M53.157 17.2129C52.4543 17.2129 51.7515 17.2075 51.0514 17.2129C50.3888 17.2183 50.0589 16.8968 50.0589 16.2322C50.0589 15.5243 50.0508 14.8165 50.0616 14.1113C50.0723 13.4575 50.413 13.1252 51.0675 13.1279C52.5052 13.1306 53.943 13.1252 55.3808 13.1333C55.987 13.136 56.2955 13.4656 56.3035 14.0762C56.3035 14.1086 56.3062 14.1437 56.3062 14.1762C56.2686 17.7128 56.7702 17.1697 53.157 17.2129ZM53.1007 16.1971C53.5675 16.1971 54.0396 16.1457 54.4982 16.2079C55.3271 16.3214 55.3352 15.8323 55.2842 15.2461C55.2413 14.73 55.5176 14.0519 54.5251 14.141C53.6989 14.2167 52.8593 14.2086 52.0304 14.141C51.2606 14.0789 51.0299 14.3085 51.0272 15.1164C51.0245 15.9647 51.1882 16.3727 52.1055 16.2079C52.4274 16.1511 52.7681 16.1998 53.1007 16.1971Z" fill="white"/>
</g>
<defs>
<clipPath id="clip0_366_6803">
<rect width="201" height="70" fill="white"/>
</clipPath>
</defs>
</svg>
