<svg width="35" height="35" viewBox="0 0 35 35" fill="none" xmlns="http://www.w3.org/2000/svg">
<path d="M18.3237 9.33106H16.6797C16.5293 9.33106 16.4062 9.45411 16.4062 9.6045V19.0142C16.4062 19.103 16.4473 19.1851 16.519 19.2363L22.1689 23.3618C22.292 23.4507 22.4629 23.4268 22.5518 23.3037L23.5293 21.9707C23.6216 21.8442 23.5942 21.6733 23.4712 21.5879L18.5972 18.064V9.6045C18.5972 9.45411 18.4741 9.33106 18.3237 9.33106ZM25.8364 11.9014L31.1958 13.2105C31.3667 13.2515 31.5342 13.1216 31.5342 12.9473L31.5615 7.42725C31.5615 7.19825 31.2983 7.06836 31.1206 7.21192L25.7339 11.4194C25.6932 11.4509 25.6622 11.4933 25.6445 11.5416C25.6267 11.5899 25.623 11.6423 25.6337 11.6926C25.6445 11.743 25.6692 11.7893 25.705 11.8262C25.7409 11.8631 25.7864 11.8892 25.8364 11.9014ZM31.5684 22.1929L29.6304 21.5264C29.5628 21.5032 29.4889 21.5074 29.4243 21.5381C29.3598 21.5687 29.3099 21.6234 29.2852 21.6904C29.2202 21.8647 29.1519 22.0356 29.0801 22.2065C28.4717 23.6455 27.6001 24.9409 26.4858 26.0518C25.384 27.1571 24.0781 28.0381 22.6406 28.646C21.1515 29.2756 19.5508 29.5987 17.9341 29.5962C16.3003 29.5962 14.7178 29.2783 13.2275 28.646C11.7901 28.0381 10.4842 27.1571 9.38232 26.0518C8.27148 24.9409 7.3999 23.6455 6.78809 22.2065C6.16194 20.7166 5.84115 19.1162 5.84473 17.5C5.84473 15.8662 6.1626 14.2803 6.79492 12.79C7.40332 11.3511 8.2749 10.0557 9.38916 8.94483C10.491 7.83952 11.7969 6.9585 13.2344 6.35059C14.7178 5.71827 16.3037 5.40039 17.9375 5.40039C19.5713 5.40039 21.1538 5.71827 22.644 6.35059C24.0815 6.9585 25.3874 7.83952 26.4893 8.94483C26.8379 9.29688 27.166 9.6626 27.4668 10.0488L29.5107 8.44922C26.8208 5.01075 22.6338 2.79932 17.9307 2.80274C9.74121 2.80616 3.16504 9.45752 3.24707 17.6504C3.3291 25.6997 9.87451 32.1973 17.9375 32.1973C24.2778 32.1973 29.6782 28.1777 31.7358 22.5483C31.7871 22.4048 31.7119 22.2441 31.5684 22.1929Z" fill="white"/>
</svg>
