<svg width="24" height="24" viewBox="0 0 24 24" fill="none" xmlns="http://www.w3.org/2000/svg">
<path d="M19.605 10.48L19.742 10.344C20.5475 9.53611 20.9998 8.44182 20.9998 7.30101C20.9998 6.16019 20.5475 5.06591 19.742 4.25801C18.9345 3.45182 17.8401 2.99902 16.699 2.99902C15.5579 2.99902 14.4635 3.45182 13.656 4.25801L4.25801 13.656C3.45182 14.4635 2.99902 15.5579 2.99902 16.699C2.99902 17.8401 3.45182 18.9345 4.25801 19.742C5.06591 20.5475 6.16019 20.9998 7.30101 20.9998C8.44182 20.9998 9.53611 20.5475 10.344 19.742L16.695 13.386C17.0223 13.0573 17.245 12.639 17.335 12.1839C17.425 11.7289 17.3783 11.2574 17.2008 10.8288C17.0233 10.4002 16.7229 10.0337 16.3375 9.77557C15.9521 9.5174 15.4989 9.37907 15.035 9.37801C14.4124 9.37838 13.8154 9.62582 13.375 10.066L6.71801 16.722" stroke="#565656" stroke-width="1.5" stroke-miterlimit="10" stroke-linecap="round" stroke-linejoin="round"/>
</svg>
