<svg width="35" height="35" viewBox="0 0 35 35" fill="none" xmlns="http://www.w3.org/2000/svg">
<path d="M7.29166 7.2915H26.25C27.4103 7.2915 28.5231 7.75244 29.3436 8.57291C30.1641 9.39338 30.625 10.5062 30.625 11.6665V24.7915C30.625 25.9518 30.1641 27.0646 29.3436 27.8851C28.5231 28.7056 27.4103 29.1665 26.25 29.1665H7.29166C6.13133 29.1665 5.01854 28.7056 4.19806 27.8851C3.37759 27.0646 2.91666 25.9518 2.91666 24.7915V11.6665C2.91666 10.5062 3.37759 9.39338 4.19806 8.57291C5.01854 7.75244 6.13133 7.2915 7.29166 7.2915ZM7.29166 8.74984C6.51811 8.74984 5.77624 9.05713 5.22926 9.60411C4.68228 10.1511 4.37499 10.893 4.37499 11.6665V13.1248H29.1667V11.6665C29.1667 10.893 28.8594 10.1511 28.3124 9.60411C27.7654 9.05713 27.0235 8.74984 26.25 8.74984H7.29166ZM4.37499 24.7915C4.37499 25.5651 4.68228 26.3069 5.22926 26.8539C5.77624 27.4009 6.51811 27.7082 7.29166 27.7082H26.25C27.0235 27.7082 27.7654 27.4009 28.3124 26.8539C28.8594 26.3069 29.1667 25.5651 29.1667 24.7915V17.4998H4.37499V24.7915ZM7.29166 23.3332H13.125V24.7915H7.29166V23.3332ZM16.0417 23.3332H20.4167V24.7915H16.0417V23.3332ZM4.37499 14.5832V16.0415H29.1667V14.5832H4.37499Z" fill="white"/>
</svg>
