<svg width="30" height="30" viewBox="0 0 30 30" fill="none" xmlns="http://www.w3.org/2000/svg">
<g clip-path="url(#clip0_675_4563)">
<path d="M16.44 0.852448C16.8704 0.601167 17.3598 0.46875 17.8581 0.46875C18.3565 0.46875 18.8459 0.601167 19.2762 0.852448L19.285 0.857448L27.9812 6.20245C28.4093 6.45367 28.7644 6.81232 29.0112 7.24292C29.2581 7.67351 29.3882 8.16111 29.3887 8.65745V18.0525C29.3887 19.065 28.8487 20.0024 27.9725 20.5124L27.97 20.5137L13.015 29.3099L13.01 29.3137C12.1275 29.8262 11.0375 29.8262 10.155 29.3137L10.1225 29.295L1.99375 23.6674C1.57563 23.4148 1.22983 23.0585 0.989819 22.633C0.749807 22.2075 0.623714 21.7272 0.623749 21.2387V11.7974C0.623749 11.3074 0.748749 10.8349 0.978749 10.4224L0.982499 10.4149L0.999999 10.3824C1.24625 9.95495 1.6 9.5987 2.025 9.3487H2.0275L16.44 0.852448ZM17.3862 2.4712H17.385L3.31 10.7699L11.12 16.0787C11.266 16.1574 11.4296 16.1975 11.5954 16.1953C11.7612 16.1931 11.9237 16.1487 12.0675 16.0662L26.61 7.5612L18.3237 2.4687C18.1809 2.38699 18.0191 2.34431 17.8545 2.34497C17.6899 2.34563 17.5284 2.38959 17.3862 2.47245V2.4712ZM10.6462 17.9125C10.4758 17.853 10.3113 17.7777 10.155 17.6875L10.1262 17.67L2.49875 12.4862V21.24C2.49875 21.5837 2.68 21.9 2.9725 22.07L3.00375 22.0875L10.6462 27.3775V17.9125ZM22.5 12.1362L18.4375 14.5112V23.9462L22.5 21.5562V12.1362ZM13.0125 17.6837L13.01 17.6862C12.8545 17.7763 12.6908 17.8516 12.5212 17.9112V27.4262L16.5625 25.0487V15.6087L13.0125 17.6837ZM24.375 11.0387V20.4537L27.03 18.8912C27.1767 18.8056 27.2985 18.6832 27.3833 18.5361C27.4682 18.389 27.5131 18.2223 27.5137 18.0525V9.2037L24.375 11.0387Z" fill="white"/>
</g>
<defs>
<clipPath id="clip0_675_4563">
<rect width="30" height="30" fill="white"/>
</clipPath>
</defs>
</svg>
