<svg width="35" height="35" viewBox="0 0 35 35" fill="none" xmlns="http://www.w3.org/2000/svg">
<path d="M18.3837 5.45478C18.1154 5.29758 17.8101 5.21472 17.4991 5.21472C17.1882 5.21472 16.8828 5.29758 16.6145 5.45478L6.097 11.6148C5.8337 11.7695 5.61549 11.9905 5.46405 12.2557C5.3126 12.5209 5.2332 12.8211 5.23373 13.1265C5.23426 13.4319 5.31471 13.7319 5.46707 13.9966C5.61944 14.2612 5.83842 14.4814 6.10225 14.6353L16.618 20.7638C16.8855 20.9197 17.1895 21.0018 17.4991 21.0018C17.8087 21.0018 18.1128 20.9197 18.3802 20.7638L28.896 14.6353C29.1601 14.4812 29.3792 14.2607 29.5315 13.9957C29.6838 13.7307 29.7641 13.4303 29.7643 13.1247C29.7644 12.819 29.6845 12.5185 29.5325 12.2533C29.3805 11.9881 29.1616 11.7674 28.8978 11.613L18.3837 5.45478ZM16.6145 7.48303C16.8826 7.32616 17.1876 7.24348 17.4982 7.24348C17.8089 7.24348 18.1139 7.32616 18.382 7.48303L28.014 13.1233L18.3802 18.739C18.1128 18.8949 17.8087 18.977 17.4991 18.977C17.1895 18.977 16.8855 18.8949 16.618 18.739L6.9825 13.1233L16.6145 7.48303ZM5.3725 16.8875L16.639 23.2278C16.9008 23.375 17.1961 23.4523 17.4965 23.4523C17.7969 23.4523 18.0922 23.375 18.354 23.2278L29.6205 16.8875C29.7898 17.2803 29.8095 17.7215 29.6756 18.1278C29.5418 18.5341 29.2639 18.8772 28.8942 19.0925L18.3767 25.221C18.1095 25.3766 17.8057 25.4585 17.4965 25.4585C17.1873 25.4585 16.8835 25.3766 16.6162 25.221L6.09875 19.0925C5.72914 18.8772 5.45117 18.5341 5.31736 18.1278C5.18355 17.7215 5.20316 17.2803 5.3725 16.8875ZM5.3725 21.1803L16.639 27.5188C16.9008 27.666 17.1961 27.7433 17.4965 27.7433C17.7969 27.7433 18.0922 27.666 18.354 27.5188L29.6205 21.1803C29.7898 21.5731 29.8095 22.0143 29.6756 22.4205C29.5418 22.8268 29.2639 23.17 28.8942 23.3853L18.3767 29.5138C18.1095 29.6693 17.8057 29.7513 17.4965 29.7513C17.1873 29.7513 16.8835 29.6693 16.6162 29.5138L6.09875 23.3853C5.72914 23.17 5.45117 22.8268 5.31736 22.4205C5.18355 22.0143 5.20316 21.5731 5.3725 21.1803Z" fill="#FF8B00"/>
</svg>
