<svg width="35" height="35" viewBox="0 0 35 35" fill="none" xmlns="http://www.w3.org/2000/svg">
<path d="M31.6094 21.3862L29.3706 19.4722C29.4766 18.8228 29.5313 18.1597 29.5313 17.4966C29.5313 16.8335 29.4766 16.1704 29.3706 15.521L31.6094 13.6069C31.7782 13.4624 31.8991 13.2698 31.9559 13.0549C32.0127 12.84 32.0027 12.6129 31.9273 12.4038L31.8965 12.3149C31.2802 10.5924 30.3573 8.99551 29.1724 7.60156L29.1108 7.52979C28.9671 7.36077 28.7755 7.23928 28.5614 7.18131C28.3472 7.12335 28.1205 7.13164 27.9111 7.20508L25.1323 8.19287C24.1069 7.35205 22.9619 6.68897 21.7246 6.22412L21.188 3.31885C21.1475 3.10024 21.0415 2.89913 20.884 2.74223C20.7264 2.58533 20.5249 2.48007 20.3062 2.44043L20.2139 2.42334C18.4331 2.10205 16.5601 2.10205 14.7793 2.42334L14.687 2.44043C14.4683 2.48007 14.2667 2.58533 14.1092 2.74223C13.9517 2.89913 13.8457 3.10024 13.8052 3.31885L13.2651 6.23779C12.0377 6.70276 10.8947 7.36549 9.88136 8.19971L7.08204 7.20508C6.87274 7.13105 6.64587 7.12247 6.43158 7.18047C6.21729 7.23847 6.02572 7.3603 5.88233 7.52979L5.82081 7.60156C4.63731 8.99651 3.71456 10.5931 3.09669 12.3149L3.06592 12.4038C2.91212 12.8311 3.03858 13.3096 3.3838 13.6069L5.64991 15.5415C5.54395 16.1841 5.49268 16.8403 5.49268 17.4932C5.49268 18.1494 5.54395 18.8057 5.64991 19.4448L3.3838 21.3794C3.21493 21.524 3.09408 21.7165 3.0373 21.9314C2.98052 22.1463 2.9905 22.3734 3.06592 22.5825L3.09669 22.6714C3.71534 24.394 4.63135 25.9834 5.82081 27.3848L5.88233 27.4565C6.02607 27.6256 6.21765 27.747 6.43181 27.805C6.64598 27.863 6.87268 27.8547 7.08204 27.7812L9.88136 26.7866C10.8999 27.624 12.0381 28.2871 13.2651 28.7485L13.8052 31.6675C13.8457 31.8861 13.9517 32.0872 14.1092 32.2441C14.2667 32.401 14.4683 32.5063 14.687 32.5459L14.7793 32.563C16.5764 32.886 18.4167 32.886 20.2139 32.563L20.3062 32.5459C20.5249 32.5063 20.7264 32.401 20.884 32.2441C21.0415 32.0872 21.1475 31.8861 21.188 31.6675L21.7246 28.7622C22.9614 28.2986 24.1129 27.6333 25.1323 26.7935L27.9111 27.7812C28.1204 27.8553 28.3473 27.8639 28.5616 27.8059C28.7759 27.7479 28.9675 27.626 29.1108 27.4565L29.1724 27.3848C30.3618 25.98 31.2778 24.394 31.8965 22.6714L31.9273 22.5825C32.0811 22.1621 31.9546 21.6836 31.6094 21.3862ZM26.9439 15.9243C27.0293 16.4404 27.0737 16.9702 27.0737 17.5C27.0737 18.0298 27.0293 18.5596 26.9439 19.0757L26.7183 20.4463L29.2715 22.6304C28.8844 23.5221 28.3959 24.3662 27.8154 25.146L24.6436 24.0215L23.5703 24.9033C22.7534 25.5732 21.8442 26.0996 20.8599 26.4688L19.5576 26.9575L18.9458 30.273C17.9805 30.3823 17.0059 30.3823 16.0405 30.273L15.4287 26.9507L14.1367 26.4551C13.1626 26.0859 12.2568 25.5596 11.4468 24.8931L10.3735 24.0078L7.18116 25.1426C6.6001 24.3599 6.11475 23.5156 5.7251 22.627L8.30567 20.4224L8.0835 19.0552C8.00147 18.5459 7.95704 18.0195 7.95704 17.5C7.95704 16.9771 7.99805 16.4541 8.0835 15.9448L8.30567 14.5776L5.7251 12.373C6.11134 11.481 6.6001 10.6401 7.18116 9.85742L10.3735 10.9922L11.4468 10.1069C12.2568 9.44043 13.1626 8.91406 14.1367 8.54492L15.4321 8.05615L16.044 4.73389C17.0044 4.62451 17.9854 4.62451 18.9492 4.73389L19.561 8.04932L20.8633 8.53809C21.8442 8.90723 22.7568 9.43359 23.5737 10.1035L24.647 10.9854L27.8189 9.86084C28.3999 10.6436 28.8853 11.4878 29.2749 12.3765L26.7217 14.5605L26.9439 15.9243ZM17.5 11.1426C14.1777 11.1426 11.4844 13.8359 11.4844 17.1582C11.4844 20.4805 14.1777 23.1738 17.5 23.1738C20.8223 23.1738 23.5156 20.4805 23.5156 17.1582C23.5156 13.8359 20.8223 11.1426 17.5 11.1426ZM20.207 19.8652C19.852 20.2213 19.43 20.5037 18.9655 20.6961C18.5009 20.8885 18.0028 20.9871 17.5 20.9863C16.478 20.9863 15.5176 20.5864 14.793 19.8652C14.4369 19.5102 14.1545 19.0882 13.9621 18.6237C13.7697 18.1591 13.6711 17.661 13.6719 17.1582C13.6719 16.1362 14.0718 15.1758 14.793 14.4512C15.5176 13.7266 16.478 13.3301 17.5 13.3301C18.522 13.3301 19.4824 13.7266 20.207 14.4512C20.5631 14.8062 20.8455 15.2282 21.0379 15.6928C21.2303 16.1573 21.3289 16.6554 21.3281 17.1582C21.3281 18.1802 20.9282 19.1406 20.207 19.8652Z" fill="#FF8B00"/>
</svg>
