<svg width="35" height="35" viewBox="0 0 35 35" fill="none" xmlns="http://www.w3.org/2000/svg">
<path d="M10.2083 6.56252C9.4325 6.5623 8.67056 6.76839 8.00061 7.15967C7.33067 7.55096 6.77683 8.11335 6.39586 8.78921C6.01489 9.46507 5.8205 10.2301 5.83262 11.0058C5.84473 11.7816 6.06291 12.5401 6.46479 13.2038C5.46662 13.3966 4.56673 13.931 3.91964 14.7151C3.27254 15.4992 2.91861 16.4841 2.91861 17.5007C2.91861 18.5174 3.27254 19.5023 3.91964 20.2864C4.56673 21.0705 5.46662 21.6049 6.46479 21.7977M10.2083 6.56252C10.2083 5.59559 10.5924 4.66825 11.2762 3.98453C11.9599 3.3008 12.8872 2.91669 13.8542 2.91669C14.8211 2.91669 15.7484 3.3008 16.4322 3.98453C17.1159 4.66825 17.5 5.59559 17.5 6.56252M10.2083 6.56252C10.2083 7.75544 10.7815 8.81419 11.6667 9.47919M6.46479 21.7977C6.06328 22.4613 5.8454 23.2197 5.83348 23.9953C5.82156 24.7708 6.01602 25.5356 6.39695 26.2112C6.77787 26.8868 7.33156 27.449 8.00129 27.8402C8.67102 28.2315 9.43272 28.4376 10.2083 28.4375C10.2083 29.4045 10.5924 30.3318 11.2762 31.0155C11.9599 31.6992 12.8872 32.0834 13.8542 32.0834C14.8211 32.0834 15.7484 31.6992 16.4322 31.0155C17.1159 30.3318 17.5 29.4045 17.5 28.4375M6.46479 21.7977C6.98816 20.9313 7.79576 20.2731 8.75 19.9354M17.5 6.56252V28.4375M17.5 6.56252C17.5 5.59559 17.8841 4.66825 18.5678 3.98453C19.2516 3.3008 20.1789 2.91669 21.1458 2.91669C22.1128 2.91669 23.0401 3.3008 23.7238 3.98453C24.4076 4.66825 24.7917 5.59559 24.7917 6.56252C25.5673 6.56246 26.329 6.76859 26.9987 7.15979C27.6684 7.551 28.2221 8.11322 28.6031 8.78885C28.984 9.46449 29.1784 10.2292 29.1665 11.0048C29.1546 11.7803 28.9367 12.5387 28.5352 13.2023M17.5 28.4375C17.5 29.4045 17.8841 30.3318 18.5678 31.0155C19.2516 31.6992 20.1789 32.0834 21.1458 32.0834C22.1128 32.0834 23.0401 31.6992 23.7238 31.0155C24.4076 30.3318 24.7917 29.4045 24.7917 28.4375M24.7917 28.4375C25.5675 28.4377 26.3294 28.2316 26.9994 27.8404C27.6693 27.4491 28.2232 26.8867 28.6041 26.2108C28.9851 25.535 29.1795 24.77 29.1674 23.9942C29.1553 23.2185 28.9371 22.4599 28.5352 21.7963C29.5334 21.6034 30.4333 21.069 31.0804 20.2849C31.7275 19.5008 32.0814 18.5159 32.0814 17.4993C32.0814 16.4827 31.7275 15.4977 31.0804 14.7136C30.4333 13.9295 29.5334 13.3952 28.5352 13.2023M24.7917 28.4375C24.7917 27.2446 24.2185 26.1859 23.3333 25.5209M28.5352 13.2023C28.0118 14.0687 27.2042 14.7269 26.25 15.0646" stroke="#FF8B00" stroke-width="2.1875" stroke-linecap="round" stroke-linejoin="round"/>
</svg>
