<svg width="35" height="35" viewBox="0 0 35 35" fill="none" xmlns="http://www.w3.org/2000/svg">
<path d="M25.4304 31.9915H9.5696C8.60267 31.9915 7.67533 31.6074 6.99161 30.9236C6.30788 30.2399 5.92377 29.3126 5.92377 28.3456V27.1396C5.92377 21.3515 11.1169 16.6396 17.5 16.6396C23.8831 16.6396 29.0763 21.3485 29.0763 27.1396V28.3456C29.0763 29.3126 28.6922 30.2399 28.0084 30.9236C27.3247 31.6074 26.3974 31.9915 25.4304 31.9915ZM17.5 18.1008C11.9204 18.1008 7.3821 22.155 7.3821 27.1425V28.3485C7.3821 28.9287 7.61257 29.4851 8.0228 29.8953C8.43304 30.3056 8.98944 30.536 9.5696 30.536H25.4304C26.0106 30.536 26.567 30.3056 26.9772 29.8953C27.3875 29.4851 27.6179 28.9287 27.6179 28.3485V27.1396C27.6179 22.155 23.0796 18.1008 17.5 18.1008ZM17.5 14.4535C16.3682 14.4538 15.2616 14.1185 14.3204 13.4898C13.3791 12.8612 12.6454 11.9676 12.2121 10.922C11.7787 9.87634 11.6652 8.72569 11.8858 7.61554C12.1065 6.50539 12.6514 5.4856 13.4516 4.68514C14.2519 3.88469 15.2715 3.33953 16.3816 3.11861C17.4917 2.89769 18.6424 3.01093 19.6881 3.44401C20.7339 3.87709 21.6277 4.61055 22.2565 5.55165C22.8854 6.49274 23.2211 7.59918 23.2211 8.73105C23.2199 10.2481 22.6168 11.7028 21.5442 12.7757C20.4716 13.8486 19.0171 14.452 17.5 14.4535ZM17.5 4.46834C16.6565 4.46805 15.8319 4.71793 15.1304 5.18637C14.429 5.65481 13.8822 6.32077 13.5593 7.10001C13.2363 7.87924 13.1518 8.73674 13.3163 9.56405C13.4807 10.3913 13.8869 11.1513 14.4833 11.7477C15.0798 12.3442 15.8397 12.7503 16.667 12.9148C17.4943 13.0793 18.3518 12.9947 19.1311 12.6718C19.9103 12.3489 20.5762 11.8021 21.0447 11.1006C21.5131 10.3992 21.763 9.57454 21.7627 8.73105C21.7616 7.60086 21.3121 6.5173 20.5129 5.71814C19.7138 4.91897 18.6302 4.4695 17.5 4.46834Z" fill="#FF8B00"/>
</svg>
