<svg width="40" height="40" viewBox="0 0 40 40" fill="none" xmlns="http://www.w3.org/2000/svg">
<path d="M20.2156 17.3691H20.227M25.8927 17.3691H25.9055M14.5371 17.3691H14.5499" stroke="white" stroke-width="3" stroke-linecap="round" stroke-linejoin="round"/>
<path d="M23.0094 6.02756C20.0656 5.97275 17.1208 6.00593 14.179 6.12704C10.7116 6.27483 8.97791 6.34872 7.60517 7.72999C6.23385 9.11267 6.17417 10.7995 6.05622 14.1716C5.98126 16.3025 5.98126 18.4354 6.05622 20.5664C6.17417 23.9385 6.23385 25.6253 7.60517 27.0066C8.97649 28.3893 10.7116 28.4632 14.179 28.6124L14.5257 28.6266V31.9632C14.5258 32.1616 14.5827 32.3557 14.6898 32.5227C14.7969 32.6897 14.9495 32.8224 15.1297 32.9053C15.31 32.9881 15.5101 33.0176 15.7066 32.9901C15.903 32.9627 16.0875 32.8795 16.2381 32.7505L19.336 30.0945C20.1133 29.4266 20.5027 29.0941 20.9659 28.9179C21.4292 28.7417 21.955 28.7317 23.008 28.7118C24.1173 28.6901 25.195 28.6569 26.2409 28.6124C29.7082 28.4632 31.4419 28.3893 32.8147 27.0066C34.186 25.6253 34.2457 23.9385 34.3636 20.5664C34.4096 19.2643 34.4276 17.9613 34.4176 16.6585" stroke="white" stroke-width="1.5" stroke-linecap="round" stroke-linejoin="round"/>
<path d="M34.4217 9.55263C34.4217 10.4949 34.0474 11.3985 33.3811 12.0647C32.7149 12.731 31.8113 13.1053 30.869 13.1053C29.9268 13.1053 29.0232 12.731 28.3569 12.0647C27.6907 11.3985 27.3164 10.4949 27.3164 9.55263C27.3164 8.61042 27.6907 7.70679 28.3569 7.04054C29.0232 6.37429 29.9268 6 30.869 6C31.8113 6 32.7149 6.37429 33.3811 7.04054C34.0474 7.70679 34.4217 8.61042 34.4217 9.55263Z" stroke="white" stroke-width="1.5" stroke-linecap="round" stroke-linejoin="round"/>
</svg>
