<svg width="40" height="40" viewBox="0 0 40 40" fill="none" xmlns="http://www.w3.org/2000/svg">
<path d="M18 9.21739C18.7072 9.21739 19.3855 8.94255 19.8856 8.45332C20.3857 7.9641 20.6667 7.30056 20.6667 6.6087C20.6667 5.91683 20.3857 5.25329 19.8856 4.76407C19.3855 4.27484 18.7072 4 18 4C17.2928 4 16.6145 4.27484 16.1144 4.76407C15.6143 5.25329 15.3333 5.91683 15.3333 6.6087C15.3333 7.30056 15.6143 7.9641 16.1144 8.45332C16.6145 8.94255 17.2928 9.21739 18 9.21739ZM18 9.21739V34M11.3333 22.913C8.66667 22.913 6.66667 21.6087 4.66667 19H4C4 25.1043 8.08 30.2735 13.72 32.0435C15.3333 32.5652 16.6667 32.6957 17.8333 34H18.1667C19.3333 32.6957 20.6667 32.5652 22.2813 32.0435C27.9187 30.2735 32 25.1043 32 19H31.3333C29.3333 21.6087 27.3333 22.913 24.6667 22.913M11.3333 13.1304C11.3333 13.1304 14.6667 14.4348 18 14.4348C21.3333 14.4348 24.6667 13.1304 24.6667 13.1304" stroke="white" stroke-width="1.5"/>
</svg>
