<svg width="40" height="40" viewBox="0 0 40 40" fill="none" xmlns="http://www.w3.org/2000/svg">
<path d="M30.55 10.975L24.75 13.875M24.75 13.875L24.025 14.2375L17.5 17.5M24.75 13.875V18.95M24.75 13.875L10.975 6.625M17.5 17.5L4.45 10.975M17.5 17.5V31.275M22.6881 5.0039L25.5881 6.5264C28.707 8.16345 30.2673 8.98125 31.1344 10.453C32 11.9233 32 13.7547 32 17.4159V17.5856C32 21.2454 32 23.0767 31.1344 24.547C30.2673 26.0188 28.707 26.838 25.5881 28.4751L22.6881 29.9961C20.1419 31.3316 18.8688 32 17.5 32C16.1312 32 14.8581 31.333 12.3119 29.9961L9.4119 28.4736C6.29295 26.8366 4.73275 26.0188 3.86565 24.547C3 23.0767 3 21.2454 3 17.587V17.4174C3 13.7561 3 11.9248 3.86565 10.4544C4.73275 8.9827 6.29295 8.16345 9.4119 6.52785L12.3119 5.00535C14.8581 3.66845 16.1312 3 17.5 3C18.8688 3 20.1419 3.667 22.6881 5.0039Z" stroke="white" stroke-width="1.5" stroke-linecap="round"/>
</svg>
