<svg width="40" height="40" viewBox="0 0 40 40" fill="none" xmlns="http://www.w3.org/2000/svg">
<path d="M16.5507 22.0342L5.28065 16.0442M16.5507 34.2992V22.0375L25.6223 16.9058M25.6223 16.9058L34.6923 11.7742M25.6223 16.9058V29.8708M34.6923 11.7742C34.2323 11.0192 33.574 10.3842 32.764 9.95416L25.8723 6.28916C25.1301 5.89417 24.3002 5.69276 23.4594 5.70354C22.6187 5.71431 21.7942 5.93694 21.0623 6.35082L7.12232 14.2375C6.34732 14.6758 5.71898 15.3025 5.28065 16.0425C4.83065 16.8008 4.58398 17.6758 4.58398 18.5892V25.6342C4.584 26.5416 4.83096 27.4319 5.29838 28.2096C5.7658 28.9874 6.43606 29.6233 7.23732 30.0492L14.129 33.7125C14.8739 34.1087 15.707 34.3099 16.5507 34.2975C17.3884 34.2854 18.2096 34.0631 18.939 33.6508L25.6223 29.8708M34.6923 11.7742C35.159 12.5425 35.4173 13.4358 35.4173 14.3675V21.4125C35.4175 22.2979 35.1827 23.1675 34.7367 23.9323C34.2907 24.6972 33.6496 25.3299 32.879 25.7658L25.6223 29.8708" stroke="white" stroke-width="1.5" stroke-linecap="round" stroke-linejoin="round"/>
</svg>
