<svg width="40" height="40" viewBox="0 0 40 40" fill="none" xmlns="http://www.w3.org/2000/svg">
<path d="M15.5 35.2832C20.0312 28.9395 23.6562 23.502 23.6562 19.877C23.6562 17.7138 22.7969 15.6392 21.2673 14.1096C19.7377 12.58 17.6632 11.7207 15.5 11.7207C13.3368 11.7207 11.2623 12.58 9.73266 14.1096C8.20307 15.6392 7.34375 17.7138 7.34375 19.877C7.34375 23.502 10.9688 28.9395 15.5 35.2832Z" stroke="white" stroke-width="1.5"/>
<path d="M19.125 19.875C19.125 20.8364 18.7431 21.7584 18.0633 22.4383C17.3834 23.1181 16.4614 23.5 15.5 23.5C14.5386 23.5 13.6166 23.1181 12.9367 22.4383C12.2569 21.7584 11.875 20.8364 11.875 19.875C11.875 18.9136 12.2569 17.9916 12.9367 17.3117C13.6166 16.6319 14.5386 16.25 15.5 16.25C16.4614 16.25 17.3834 16.6319 18.0633 17.3117C18.7431 17.9916 19.125 18.9136 19.125 19.875Z" stroke="white" stroke-width="1.5"/>
<path d="M28.5726 16.1635C28.7269 14.3918 28.1885 12.6282 27.0595 11.2071C25.9304 9.786 24.2893 8.80616 22.4473 8.45343M34.2768 16.9291C34.642 13.7261 33.7069 10.5115 31.6608 7.93599C29.6146 5.36049 26.6103 3.61654 23.256 3.05716" stroke="white" stroke-width="1.5" stroke-linecap="round" stroke-linejoin="round"/>
</svg>
