<svg width="40" height="40" viewBox="0 0 40 40" fill="none" xmlns="http://www.w3.org/2000/svg">
<path d="M31 18.0775V31.6538C31 32.5413 30.6365 33.3924 29.9895 34.0199C29.3425 34.6475 28.465 35 27.55 35H11.45C10.535 35 9.65748 34.6475 9.01048 34.0199C8.36348 33.3924 8 32.5413 8 31.6538V9.34615C8 8.4587 8.36348 7.60759 9.01048 6.98007C9.65748 6.35254 10.535 6 11.45 6H18.5477C19.1574 6.00009 19.7422 6.23504 20.1735 6.6532L30.3265 16.5006C30.7577 16.9189 30.9999 17.4861 31 18.0775Z" stroke="white" stroke-width="1.5" stroke-linejoin="round"/>
<path d="M19.5 6.55859V14.924C19.5 15.5156 19.7423 16.083 20.1737 16.5014C20.605 16.9197 21.19 17.1547 21.8 17.1547H30.425M13.75 22.7317H25.25M13.75 28.3086H25.25" stroke="white" stroke-width="1.5" stroke-linecap="round" stroke-linejoin="round"/>
</svg>
